<svg xmlns="http://www.w3.org/2000/svg" xmlns:xlink="http://www.w3.org/1999/xlink" viewBox="0 0 134.167 84.167" fill="#fff" fill-rule="evenodd" stroke="#000" stroke-linecap="round" stroke-linejoin="round"><use xlink:href="#A" x="2.083" y="2.083"/><symbol id="A" overflow="visible"><g stroke="none" fill-rule="nonzero"><path d="M0 0h129.167v79.167H0z" fill="#5c9e31"/><path d="M0 0v79.167L129.167 0H0z" fill="#1e50a0"/><path d="M129.167 8.333V0H118.75L0 70.833v8.333h10.417l118.75-70.833z" fill="#fcea2b"/></g><path d="M9.134 17.709l3.458-10.417 2.979 10.256-8.279-6.179 10.417-.258-8.575 6.598zm25 0l3.458-10.417 2.979 10.256-8.281-6.179 10.417-.258-8.575 6.598zm-25 20.833l3.458-10.417 2.979 10.256-8.279-6.179 10.417-.258-8.575 6.598zm12.5-10.417l3.458-10.417 2.979 10.256-8.281-6.179 10.417-.258-8.575 6.598zm12.5 10.417l3.458-10.417 2.979 10.256-8.281-6.179 10.417-.258-8.575 6.598z" stroke="#fff" fill-rule="nonzero" stroke-width="2.083"/><path d="M0 0h129.167v79.167H0z" fill="none" stroke-width="4.167"/></symbol></svg>