<svg xmlns="http://www.w3.org/2000/svg" shape-rendering="geometricPrecision" text-rendering="geometricPrecision" image-rendering="optimizeQuality" fill-rule="evenodd" clip-rule="evenodd" viewBox="0 0 512 356.79"><path fill="#E9B528" fill-rule="nonzero" d="M1.15 328.23V28.55C2.5 15.32 12.34 4.51 25.1 1.71h461.8c12.76 2.8 22.6 13.61 23.95 26.83v299.71c-1.57 15.41-14.69 27.54-30.5 27.54H31.65c-15.82 0-28.93-12.14-30.5-27.56z"/><path fill="#E30613" fill-rule="nonzero" d="M18.9 338.82h474.2V19.45H18.9z"/><path fill="#CCC" fill-rule="nonzero" d="M31.65 0h448.7c8.71 0 16.62 3.56 22.35 9.3 5.74 5.73 9.3 13.64 9.3 22.35v293.49c0 8.7-3.56 16.62-9.3 22.35-5.73 5.74-13.64 9.3-22.35 9.3H31.65c-8.71 0-16.62-3.56-22.35-9.3-5.74-5.73-9.3-13.65-9.3-22.35V31.65C0 22.94 3.56 15.03 9.3 9.3 15.03 3.56 22.94 0 31.65 0zm448.7 1.99H31.65c-8.16 0-15.57 3.34-20.95 8.71-5.37 5.38-8.71 12.79-8.71 20.95v293.49c0 8.15 3.34 15.57 8.71 20.94 5.38 5.38 12.79 8.71 20.95 8.71h448.7c8.16 0 15.57-3.33 20.95-8.71 5.37-5.37 8.71-12.79 8.71-20.94V31.65c0-8.16-3.34-15.57-8.71-20.95-5.38-5.37-12.79-8.71-20.95-8.71z"/><path fill="#DE6F10" fill-rule="nonzero" d="M273.3 120.91c-2.48 1.37-3.9 1.06-3.79 2.08.1 1.01 2.32 1.77 2.32 1.77s-2.27 2.44-4.04 3.55c-1.77 1.12-3.85 1.82-3.85 1.82s-.7.11-.3 1.22c.41 1.12 1.11 1.88 1.67 2.18.55.31.86.41.86.41s-3.08 3.29-4.45 4.36c-1.36 1.06-2.12 1.41-3.23 1.87-1.12.46-.56 2.28-.3 3.1.25.8 1.21 1.92 1.76 2.07.56.16.76.56.05 1.68-.53.83-2.29 3.04-3.13 4.26l-.05.03c-.84-1.22-2.62-3.46-3.16-4.29-.7-1.12-.5-1.52.05-1.68.56-.15 1.52-1.27 1.77-2.07.25-.82.81-2.64-.3-3.1-1.11-.46-1.87-.81-3.23-1.87-1.37-1.07-4.45-4.36-4.45-4.36s.3-.1.86-.41c.55-.3 1.26-1.06 1.66-2.18.41-1.11-.3-1.22-.3-1.22s-2.07-.7-3.84-1.82c-1.77-1.11-4.04-3.55-4.04-3.55s2.22-.76 2.32-1.77c.1-1.02-1.31-.71-3.79-2.08s-3.28-3.09-3.28-3.09 2.88-.96 4.29-3.85c.5-1.03.62-1.96.57-2.74l.11.03c4.6 1.5 9.98 2.1 14.78 2.1 4.8 0 10.18-.6 14.77-2.1l.11-.03c-.06.78.06 1.71.56 2.74 1.42 2.89 4.3 3.85 4.3 3.85s-.81 1.72-3.28 3.09zm-33.51-24.15c-.72.6-2.01.24-3-.15-.99-.39-2.04-.67-2.04-.67s.24-.23.51-.72c.27-.48.27-1.29.06-2.64-.21-1.36-.42-2.8-.21-3.58.21-.79.18-1.63 1.59-3.23 1.41-1.59 3.78-2.7 3.78-2.7s-.3.51-.87 1.59c-.57 1.08-1.92 4.03-1.71 6.92.21 2.89 1.89 3.37 2.34 3.76.45.39.27.82-.45 1.42zm9.07-13.98c2.51-2.3 4.26-2.68 4.26-2.68-.11 2.54-.57 4.57-.92 6.93-.41 2.81-.19 4.12.35 5.49s2.01 2.2 2.01 2.2-.48.07-1.21.45c-.74.38-1.5.96-2.77 1.02-1.28.07-1.85-.29-2.68-.86-.83-.58-1.75-.96-1.75-.96s.42-.99.32-2.11c-.09-1.11-.7-2.52-.7-3.67s.57-3.51 3.09-5.81zm12.26 9.74c.54-1.37.76-2.68.35-5.49-.35-2.36-.81-4.39-.93-6.93 0 0 1.76.38 4.27 2.68 2.51 2.3 3.09 4.66 3.09 5.81 0 1.15-.61 2.56-.7 3.67-.1 1.12.31 2.11.31 2.11s-.92.38-1.75.96c-.82.57-1.4.92-2.67.86-1.27-.06-2.04-.64-2.77-1.02s-1.21-.45-1.21-.45 1.47-.83 2.01-2.2zm12.92-7.86c-.57-1.08-.87-1.59-.87-1.59s2.37 1.11 3.78 2.7c1.41 1.6 1.38 2.44 1.59 3.23.21.78 0 2.22-.21 3.58-.21 1.35-.21 2.16.06 2.64.27.49.51.72.51.72s-1.05.28-2.04.67-2.28.75-3 .15c-.72-.6-.9-1.03-.45-1.42.45-.39 2.13-.87 2.34-3.76.21-2.89-1.14-5.84-1.71-6.92zm-50.75 136.1c-1.16 2.18-4.34 4.46-6.67 5.47-2.33 1.01-4.87 1.33-5.93 1.49-1.06.16-.16 1.43-.16 1.43l1.12 1.6s-.16.47-1.86.95c-1.69.48-3.76.85-5.5 1.33-1.75.48.47 1.91 1.48 2.45 1 .52.74 1.11.21 1.64-.53.53-2.49 1.65-3.49 1.97-1.01.32-.85.85.15 1.27 1.01.42 3.76.96 3.76.96s-.05.1-1.74 1.38c-1.7 1.27-4.67 2.12-6.62 2.23-1.96.1-5.06.23-8.99.05-3.93-.18-4.38-.27-4.38-.27s-.13-1.31-.41-3.25c-.27-1.94-1.44-4.7-2.34-5.96-.91-1.26-2.8-3.79-2.8-3.79s.04-.54.18-1.18c.13-.63.04-1.3-.42-2.5-.45-1.19-2.75-2.94-2.75-2.94s-.09-1.28-.09-2.47c0-1.2-.83-5.88-1.56-8.08-.74-2.2-4.31-7.99-5.97-10.74-1.65-2.75-2.63-6.83-3.13-10s-.3-4.21-.13-5.04c.07-.37.23-.7.37-1a9.84 9.84 0 002.66 2.39c4.81 2.94 14.36 3.21 14.36 3.21s-1.06.3-4.47.33c-3.42.03-7.99-1.09-7.99-1.09s-.12.25-.12 1.06c0 .82.22 4.3 5.23 6.85 5.02 2.54 10.56.79 10.56.79s-.46.39-1.88.9c-1.42.52-5.29 1.34-5.29 1.34 0 3.08 2.69 4.77 4.78 5.48 3.56 1.21 7.62.36 9.7-.06 2.09-.43.91.27-1.06 1.12-1.96.84-4.77 1-4.77 1 .43 2.25 4.86 4.18 6.53 4.54 4.23.91 7.35.33 8.62-.15 1.27-.49 1.03.09.63.48-.75.76-2.03.95-2.03 2.16 0 .34-.04 1.57 6.25 1.98 6.3.41 8.38-3.08 9.47-4.11 1.1-1.02 1.03-.47.76-.06-.28.41-1.37 1.64-2.33 3.01-.96 1.37-.48 2.67 3.69 2.54 3.08-.11 5.11-3.37 5.97-5.08l.06.08c.05.08.11.16.16.23-.39 1.01-1.07 2.67-1.82 4.06zm-58.64-34.34c-.47.27-1.93 1.1-1.93 1.1s-.77-1.56-.97-2.03c-.2-.47-.1-.67.17-.67s1.06-.23 1.7-.3c.09-.01.17-.02.24-.04.21.6.49 1.26.86 1.91-.03.01-.05.02-.07.03zm172.02-10.99c2.14-.6 9.6-2.78 14.87-7.05 5.26-4.27 6.28-7.69 6.71-9.54.42-1.85.6-3.3-.76-2.24-1.36 1.06-5.44 4.27-8.22 5.81-2.78 1.55-5.35 2.27-6.87 2.7-1.51.42-2.72.69-1.27.12 1.45-.58 6.2-2.24 9.86-5.91 3.66-3.66 6.55-9.15 6.61-12.52.06-3.37-.18-3.13-1.26-2.29-1.09.84-4.94 5.6-7.11 7.4-2.16 1.81-5.65 4.22-7.4 5.24-1.75 1.03-4.21 2.17-.78-.18 3.43-2.34 9.93-7.88 12.58-15.05 2.65-7.16 2.17-11.37 2.11-12.1-.06-.72-.67-2.16-1.27-.84-.6 1.32-4.94 9.99-8.43 13.72-3.49 3.74-2.65 3.02-3.43 3.62-.78.6-2.11 1.68-.42-.43 1.69-2.1 5.18-6.98 6.99-11.79 1.8-4.82 2.28-9.64 2.34-12.4.06-2.77-1.14-6.62-1.68-7.77-.54-1.14-1.09-1.99-1.27-.66-.18 1.32-2.95 9.87-4.45 14.02-1.51 4.16-4.52 8.85-5.12 9.76-.6.9-2.17 2.77-.48-.36 1.68-3.13 4.93-12.34 5.36-21.07.42-8.73-.79-13.55-1.99-15.96s-2.25-3.26-2.25-3.26.21 5.96-1.57 14.52c-1.78 8.56-4.38 13.08-4.38 13.08s-1.09 1.24-.34-.82c.51-1.38 1.55-4.42 2.03-9.58.5-5.41.56-11.56-1.02-16.8-1.72-5.7-4.7-8.62-4.7-8.62-.83 8.19-.67 18.73-3.67 27.28-.56-.5-1.3-1.43-1.6.46-.54 2.81-1.64 8.08-5.33 14.79-3.69 6.72-5.2 7.61-5.2 7.61s-.68-1.65-1.16-2.54c-.48-.89-.75-1.37-1.37-.13-.61 1.23-2.66 5.95-7.18 11.16-4.51 5.21-7.04 7.74-6.91 11.64.14 3.91 2.19 5.89 4.93 7.67 2.73 1.79 3.21 2.74 2.8 4.87-.41 2.12-2.87 2.87-4.99 2.94-2.12.07-4.79-.13-5.74.41-.96.55-1.03 1.92-1.99 2.88-.95.96-1.37 1.51-2.25 1.64-.32.05-.57.08-.77.1-.2-10.29 3.79-14.89 3.79-14.89l-11.15-13.1c-.58.28-1.15.55-1.73.8-.08-.15-.18-.32-.32-.5-1.49-1.89-1.97-3.5-1.97-5.93.55.06 1.66.46 2.67.26 1.02-.2.26-1.22-.05-2.18-.3-.97-.6-4.31-.4-5.58.2-1.27.3-1.77.3-1.77s1.62 1.77 2.63 1.77c1.01 0 .91-1.01 1.06-2.13.23-1.68 1.02-3.8 2.33-4.97 0 0 1.76 1.22 3.79 1.22 2.02 0 4.75-.56 6.92-2.63 2.17-2.08 2.12-2.59 2.12-2.59s4.05 1.42 7.13 1.57c3.08.15 6.37-.35 7.93-3.6 1.57-3.24-.45-6.23-.8-6.74-.36-.51-1.37-.91-1.37 0s.05 3.35-1.82 4.56c-1.87 1.22-3.33 1.17-5.1.61-1.77-.56-4.25-1.27-7.08-.86-2.54.36-2.88.56-2.92.6.13-.13 2.43-2.5 4.69-3.19 2.32-.7 3.69.26 4.45 1.17.76.91 1.41 2.38 2.02.25.61-2.12.25-4.56-.76-6.13-1.01-1.57-3.18-2.59-5.46-2.33-2.27.25-3.08.61-3.08.61s-1.16-3.3-4.09-3.91c-3.58-.74-7.52.61-10.62 2.33 0 0-2.42.56-4.9-.15-1.62-.46-3.24-1.45-4.17-2.07.28-.95.84-2.7.84-2.7s.71-.21 1.45-.49.58-.53.68-1.14c.09-.62-1.4-1.69-1.4-1.69s-.21-1.86 2.23-3.13c2.44-1.27 2.17-1.06 2.17-1.06s1.43.27 2.01-.16c.58-.42.58-.68.58-.68s1.08-.36 1.48-1.01c.4-.65.47-1.59.18-2.35s-.65-.9-.25-1.26c.39-.37.75-1.23.79-1.85.04-.61.04-.76.04-.76s.83-.29.79-1.55c-.04-1.27-.72-1.77-1.12-1.88-.39-.11-.65-.11-.65-.11s-.07-.76-.72-1.77c-.65-1.01-1.08-1.45-1.08-1.45s.47-.36.22-1.19c-.26-.83-.83-1.34-1.41-1.52-.58-.18-1.19 0-1.19 0s-1.91-1.16-2.81-1.63c-.9-.46-1.12-.57-1.12-.57s-.03-.8-.36-1.23c-.32-.44-1.08-.62-1.47-.62-.4 0-.83.22-.83.22s-3.25-.83-4.58-1.05c-1.34-.22-1.41-.32-1.41-.32s-2.88-1.38-4-1.59c-1.12-.22-1.44-.33-1.44-.33s1.17-1.41 1.24-3.04c.07-1.63-1.01-3.16-2.16-3.85-.65-.38-1-.45-1.21-.58l-.03-1.12 2.17.22.18-3.49-2.11.27.32-2.1-4.42-.05.32 2.1-2.12-.15.18 3.44 2.24-.29-.22 1.3s-.82.14-1.51.65c-1.16.69-2.13 2.03-2.06 3.65.07 1.63 1.04 3.08 1.04 3.08s-.28.07-1.4.29c-1.12.21-4 1.59-4 1.59s-.07.1-1.41.32c-1.33.22-4.57 1.05-4.57 1.05s-.44-.22-.84-.22c-.39 0-1.15.18-1.47.62-.33.43-.36 1.23-.36 1.23s-.22.11-1.12.57c-.9.47-2.81 1.63-2.81 1.63s-.62-.18-1.19 0c-.58.18-1.15.69-1.41 1.52-.25.83.22 1.19.22 1.19s-.43.44-1.08 1.45c-.65 1.01-.72 1.77-.72 1.77s-.26 0-.65.11c-.4.11-1.08.61-1.12 1.88-.03 1.26.79 1.55.79 1.55s0 .15.04.76c.04.62.4 1.48.79 1.85.4.36.04.5-.25 1.26s-.22 1.7.18 2.35c.4.65 1.48 1.01 1.48 1.01s0 .26.58.68c.58.43 2.01.16 2.01.16s-.26-.21 2.17 1.06c2.44 1.27 2.23 3.13 2.23 3.13s-1.49 1.07-1.39 1.69c.09.61-.07.86.67 1.14.74.28 1.45.49 1.45.49s.56 1.75.84 2.7c-.93.62-2.55 1.61-4.17 2.07-2.48.71-4.9.15-4.9.15-3.1-1.72-7.04-3.07-10.62-2.33-2.93.61-4.09 3.91-4.09 3.91s-.81-.36-3.08-.61c-2.28-.26-4.45.76-5.46 2.33-1.01 1.57-1.37 4.01-.76 6.13.61 2.13 1.27.66 2.02-.25.76-.91 2.13-1.87 4.45-1.17 2.26.69 4.56 3.06 4.69 3.19-.04-.04-.38-.24-2.92-.6-2.83-.41-5.31.3-7.08.86-1.76.56-3.23.61-5.1-.61-1.87-1.21-1.82-3.65-1.82-4.56 0-.91-1.01-.51-1.36 0-.36.51-2.38 3.5-.81 6.74 1.56 3.25 4.85 3.75 7.93 3.6 3.08-.15 7.13-1.57 7.13-1.57s-.05.51 2.12 2.59c2.17 2.07 4.9 2.63 6.92 2.63 2.03 0 3.79-1.22 3.79-1.22 1.31 1.17 2.1 3.29 2.33 4.97.15 1.12.05 2.13 1.06 2.13s2.63-1.77 2.63-1.77.1.5.3 1.77c.2 1.27-.1 4.61-.4 5.58-.31.96-1.06 1.97-.05 2.18 1.01.2 2.12-.2 2.68-.26 0 2.43-.49 4.04-1.97 5.93-.14.17-.24.33-.32.47-.55-.24-1.1-.5-1.65-.77l-11.16 13.1s4.01 4.62 3.8 14.97v-.07c-.21-.02-.48-.05-.81-.11-.9-.13-1.31-.68-2.26-1.64-.96-.96-1.03-2.33-1.99-2.88-.95-.54-3.62-.34-5.74-.41-2.12-.07-4.58-.82-4.99-2.94-.41-2.13.07-3.08 2.8-4.87 2.74-1.78 4.79-3.76 4.92-7.67.14-3.9-2.39-6.43-6.9-11.64-4.52-5.21-6.57-9.93-7.18-11.16-.62-1.24-.89-.76-1.37.13-.48.89-1.16 2.54-1.16 2.54s-1.51-.89-5.2-7.61c-3.69-6.71-4.79-11.98-5.34-14.79-.29-1.89-1.04-.96-1.6-.46-3-8.55-2.83-19.09-3.66-27.28 0 0-2.99 2.92-4.7 8.62-1.58 5.24-1.52 11.39-1.02 16.8.48 5.16 1.52 8.2 2.03 9.58.75 2.06-.35.82-.35.82s-2.59-4.52-4.37-13.08c-1.78-8.56-1.58-14.52-1.58-14.52s-1.04.85-2.24 3.26c-1.21 2.41-2.41 7.23-1.99 15.96.42 8.73 3.67 17.94 5.36 21.07 1.69 3.13.12 1.26-.48.36-.61-.91-3.61-5.6-5.12-9.76-1.5-4.15-4.27-12.7-4.45-14.02-.18-1.33-.73-.48-1.27.66-.54 1.15-1.74 5-1.68 7.77.06 2.76.54 7.58 2.34 12.4 1.81 4.81 5.3 9.69 6.99 11.79 1.68 2.11.36 1.03-.42.43-.79-.6.06.12-3.44-3.62-3.49-3.73-7.82-12.4-8.42-13.72-.61-1.32-1.21.12-1.27.84-.06.73-.54 4.94 2.11 12.1 2.65 7.17 9.15 12.71 12.58 15.05 3.43 2.35.96 1.21-.78.18-1.75-1.02-5.24-3.43-7.41-5.23-2.16-1.81-6.02-6.57-7.1-7.41-1.08-.84-1.32-1.08-1.26 2.29.06 3.37 2.95 8.86 6.61 12.52 3.66 3.67 8.4 5.33 9.85 5.91 1.46.57.25.3-1.27-.12-1.51-.42-4.08-1.15-6.86-2.7-2.78-1.54-6.86-4.75-8.22-5.81-1.37-1.06-1.18.39-.76 2.24.42 1.85 1.45 5.27 6.71 9.54s12.73 6.45 14.88 7.05c2.15.61.63.61.63.61s-.84-.12-5.2-1.09c-4.35-.97-10.94-4.42-12.73-5.54-1.78-1.12-2.05-1.55-1.81.82.24 2.36 2.75 7.41 6.77 9.78 4.02 2.36 11.28 3.57 13.16 3.66 1.87.09 1.39.36.54.42-.85.06-2.93.06-6.35-.33-2.8-.32-6.96-1.68-8.37-2.16-.16-.6-.31-1.19-.37-1.55-.17-.9-.63-.77-.93-.56-.3.19-.47.36-1.47.86-.99.5-1.03-.1-1.06-.4-.03-.3-.23-1.6-.27-2.27-.03-.66-.4-.7-.86-.5-.47.2-2.7 1.14-3.53 1.51-.83.36-.06 1.03.37 1.83s1.1 1.97 1.1 1.97-2.1.57-2.77.73c-.66.17-.46.64-.3 1.1.17.47 1.2 2.81 1.47 3.47.27.67.86.27.86.27l2.1-1.23.73 2.8c-.03.04-.97.22-2.03.96-1.06.75-.79 1.7.48 2.08 1.27.37 2.75 1 4.39 3.98 1.65 2.97 2.07 8.34 3.07 16.78 1.01 8.45 6.41 12.75 7.15 13.28.75.53.32.96.32.96s-.74 1.06-.42 2.71c.32 1.64 1.75 2.6 2.49 2.87.74.26.53 1 .53 1s-.37 1.81 0 5.1c.37 3.3 3.07 7.01 3.81 7.65.74.64.79.96.69 1.22-.11.27-.58.06-1.49.75-.9.69-1.9 1.64-2.54 2.81-.63 1.17-.42 1.86-.21 3.45.21 1.6 2.54 3.03 2.54 3.03s-.42.11-.53 1.28c-.1 1.17.74 2.49 1.8 3.34 1.06.85 3.08 1.28 3.08 1.28s.15 1.01.26 1.7c.11.69 1.43 1.38 2.28 1.86.84.47 2.49.21 3.17-.11.69-.32 1.17.05 1.59.74.43.69.27 3.35.27 4.41s-.64 2.18-.27 2.71c.37.53 1.38.16 2.39-.42 1-.59 1.27-.16 2.17.42.9.58 2.33 1.12 2.7 1.06.37-.05.21-1.01.21-1.8 0-.8.14-2.6.51-2.87.18-.13 1.74-.24 2.93-.75.56-.23 1.27-.47 1.33-1.01.05-.53-.75-.53-2.49-1.43-1.75-.9-2.07-1.43-3.18-2.18-1.11-.74-.58-1.01-.58-1.32 0-.32.53-.69.74-1.12.21-.42.1-1.38.1-1.38s.9-.9 1.33-1.38c.42-.48.95-1.22 1.53-1.7.59-.48 1.49-2.76 2.07-3.51.58-.74 1.91-1.54 2.7-2.55.79-1 2.91-2.65 4.13-3.45 1.22-.79 4.5-2.34 4.5-2.34s-.05 1.97.8 2.92c.84.96 1.96-.74 5.72-3.39 3.76-2.66 6.61-3.62 6.61-3.62s.8 1.23 1.8 2.5c1.01 1.28 1.91-.05 6.52-6.43 3.63-5.02 8.42-9.62 10.28-11.34.34.15.68.31 1.02.46-.09.25-.19.52-.28.83-.42 1.32-1.11 2.16-2.01 4.01-.89 1.85-2.27 2.27-3.85 4.75s-1.79 4.17-1.95 6.7c-.16 2.53 1.27 3.06 1.27 3.06s-2.33 2.27-3.01 3.96c-.69 1.69-1.06 5.12-1.06 5.12s-.37.15-1.21 1.9c-.85 1.74-2.38 2-4.59 4.22-2.22 2.21-4.7 3.16-5.86 3.85-1.16.68-.84 1.37-.53 2.27.32.89 1.9 1.79 3.75 2.48 1.85.68 2.48.42 3.74.37 1.27-.06.27.95-.26 1.47-.53.53-1.21 2.38-1.11 4.44.11 2.05 1.64 1.58 3.54 1.26 1.9-.31 4.11-1.26 4.11-1.26l-.21.58c-.21.58-.31 1-.31 2.64 0 1.63.26 2.42.74 2.84.47.43 1.42-.47 2.11-.68.68-.22 1.84-.9 3.53-1.27 1.69-.37 2.32-1.11 2.32-1.11s-.42.53-.53 1.69c-.1 1.16-.05 2.9.22 3.91.26 1 1 2.21 2.16 3.27 1.16 1.05 1.42.58 2.27-.74.84-1.32 2.58-3.01 2.58-3.01s.11.42 1.27 4.17 4.96 6.86 4.96 6.86 3.8-3.11 4.96-6.86c1.16-3.75 1.26-4.17 1.26-4.17s1.75 1.69 2.59 3.01c.85 1.32 1.11 1.79 2.27.74 1.16-1.06 1.9-2.27 2.16-3.27.27-1.01.32-2.75.22-3.91-.11-1.16-.53-1.69-.53-1.69s.63.74 2.32 1.11c1.69.37 2.85 1.06 3.53 1.27.69.21 1.64 1.11 2.12.68.47-.42.73-1.21.73-2.84 0-1.64-.1-2.06-.31-2.64l-.21-.58s2.21.95 4.11 1.26c1.9.32 3.43.79 3.54-1.26.1-2.06-.58-3.91-1.11-4.44-.53-.52-1.53-1.53-.26-1.47 1.26.05 1.9.31 3.74-.37 1.85-.69 3.43-1.59 3.75-2.48.32-.9.63-1.59-.53-2.27-1.16-.69-3.64-1.64-5.86-3.85-2.21-2.22-3.74-2.48-4.59-4.22-.84-1.75-1.21-1.9-1.21-1.9s-.37-3.43-1.06-5.12c-.68-1.69-3-3.96-3-3.96s1.42-.53 1.26-3.06c-.15-2.53-.37-4.22-1.95-6.7-1.58-2.48-2.95-2.9-3.85-4.75-.9-1.85-1.59-2.69-2.01-4.01-.08-.27-.17-.53-.27-.8.46-.2.91-.4 1.37-.6 1.84 1.7 6.65 6.32 10.3 11.36 4.6 6.38 5.5 7.7 6.51 6.43 1-1.28 1.8-2.5 1.8-2.5s2.86.96 6.62 3.61c3.76 2.66 4.87 4.36 5.72 3.4.44-.5.54-1.34.6-1.98 0 0 2.16.64 4.63 1.5 1.49.52 3.14 1.18 4.36 1.69 3.25 1.38 3.61 2.09 6.2 4.14 2.59 2.05 6.28 1.85 9.77.79 3.5-1.07 12.8-4.14 16.53-5.75 3.73-1.62 6.4-3.03 6.79-3.78.39-.75.82-2.84.82-3.58 0-.75-.82-1.85-1.1-2.05-.27-.2-.15-.79-.07-1.26.07-.47-.16-1.89-.75-2.52-.59-.63-.51-.87-.43-2.68.16-3.84-2.58-8.68-6.46-10.22 0 0-.1-.45-.42-.71-.31-.27-.84-.5-.84-.5s.08-2.21.06-2.69c-.03-.47.18-.41.44-.28.26.13.68.65 1.31.81.63.16 1.02-.29 1.16-1 .13-.71.65-2.13.89-2.84.23-.7-.06-.81-.34-.89-.29-.08-1.24-.18-1.68-.29-.45-.11-.45-.13-.34-.37.1-.23.26-.6.83-1.5.58-.89.06-.92-.49-1.1-.55-.18-3.04-.95-3.72-1.05-.69-.11-.84.47-.84.76 0 .29.02 1.55.05 2.02.03.48-.42.35-.68.21-.26-.13-.87-.5-1.34-.86-.47-.37-.81-.03-.99.5-.19.52-.76 2.68-.95 3.31-.18.63-.13 1.13.13 1.23.27.11 1.5 0 2.23 0s.32.42.32.42-.79 1.29-1.05 1.79-.71.58-1.31.58c-.61 0-1.62-.01-1.62-.01s-4.02.15-6.99 2.36c-2.96 2.2-3.8 4.03-4.25 5.09-.46 1.06-.99.83-1.45 1.22-.45.38-1.74 1.75-1.74 2.58 0 .84.3 1.29-.99 2.13-1.3.83-2.36 4.48-.61 6.38 1.75 1.9 2.43 3.8 2.97 4.71.52.91 0 1.29-.46 1.29s-1.41-.77-2.21-1.37c-.79-.59-4.81-3.72-6.53-5.01-1.73-1.29-.46-1.14-.46-1.14s.44.04 1.45-.38c1.01-.43 1.16-.96.16-1.28-1.01-.32-2.97-1.43-3.5-1.96-.53-.53-.79-1.12.21-1.65 1.01-.53 3.24-1.96 1.49-2.44-1.75-.48-3.82-.85-5.51-1.33-1.7-.48-1.85-.96-1.85-.96l1.11-1.59s.9-1.27-.16-1.43c-1.06-.16-3.6-.48-5.93-1.49-4.65-2.02-7.57-5.44-8.65-9.61l.08-.1c.87 1.72 2.89 4.93 5.94 5.03 4.17.14 4.65-1.16 3.69-2.53-.95-1.37-2.05-2.6-2.32-3.01-.28-.42-.34-.96.75.06 1.1 1.03 3.18 4.52 9.47 4.11 6.29-.41 6.26-1.64 6.26-1.98 0-1.21-1.28-1.4-2.04-2.16-.39-.39-.63-.97.64-.48 1.27.48 4.38 1.05 8.62.15 1.67-.36 6.1-2.29 6.53-4.54 0 0-2.82-.16-4.78-1-1.97-.85-3.14-1.55-1.06-1.12 2.09.42 6.14 1.27 9.71.06 2.08-.71 4.78-2.4 4.78-5.48 0 0-3.87-.82-5.3-1.34-1.42-.51-1.87-.9-1.87-.9s5.53 1.75 10.55-.79c5.02-2.55 5.23-6.03 5.23-6.85 0-.81-.12-1.06-.12-1.06s-4.56 1.12-7.98 1.09c-3.42-.03-4.48-.33-4.48-.33s9.56-.27 14.37-3.21c4.8-2.94 5.08-8.72 5.08-8.72s-5.45 1.94-8.86 2.33c-3.42.39-5.51.39-6.35.33-.85-.06-1.33-.33.54-.42 1.88-.09 9.13-1.3 13.16-3.66 4.02-2.37 6.53-7.43 6.77-9.79.24-2.36-.03-1.93-1.82-.81-1.78 1.12-8.37 4.57-12.72 5.54-4.36.97-5.21 1.09-5.21 1.09s-1.5 0 .65-.61z"/><path fill="#E30613" fill-rule="nonzero" d="M222.47 124.87c-.98-.57-3.59-1.68-6.37-1.92-2.78-.23-4.93.18-7.24.81-1.65.44-2.99.51-4.32.16-1.99-.53-3.53-2.33-4.06-4.53 0 0-1.83 2.35.05 4.91.9 1.22 2.07 1.99 3.27 2.23 3.89.79 7.71-1.59 10.96-1.8 3.11-.2 5.56 1.78 5.56 1.78s.74.61 1.78 0c1.04-.6 1.34-1.06.37-1.64zM313.19 119.39c-.53 2.2-2.08 4-4.07 4.53-1.32.35-2.66.28-4.31-.16-2.31-.63-4.46-1.04-7.24-.81-2.78.24-5.4 1.35-6.37 1.93-.97.57-.67 1.03.37 1.63 1.04.61 1.77 0 1.77 0s2.45-1.98 5.57-1.78c3.24.21 7.06 2.59 10.96 1.8 1.2-.24 2.37-1.01 3.27-2.23 1.88-2.56.05-4.91.05-4.91z"/><path fill="#E9B528" fill-rule="nonzero" d="M288.34 176.71c0-7.78 3.57-12.7 3.57-12.7l-9.73-11.15c-9.27 3.59-17.76 3.8-25.32-.04-7.56 3.84-16.06 3.63-25.33.04l-9.73 11.15s3.58 4.92 3.58 12.7c0 7.77-1.51 13.54-2.39 17.3-.87 3.77-1.63 10.79.38 15.81 2.01 5.01 4.14 9.4 12.79 13.04 8.66 3.64 13.17 5.52 16.18 8.03 3.01 2.5 4.52 4.51 4.52 4.51s1.5-2.01 4.51-4.51c3.01-2.51 7.53-4.39 16.18-8.03 8.65-3.64 10.79-8.03 12.79-13.04 2.01-5.02 1.26-12.04.38-15.81-.88-3.76-2.38-9.53-2.38-17.3zM213.69 238.78s-3.14 1.5-4.14 1.77c-.99.27-1.22.27-1.22.27s-2.15 1.95-3.72 2.88c-1.65.97-3.54 1.67-5.44 1.88-2.46.27-9.2.19-12.23.08-3.02-.12-4.9.61-6.2 2.07-1.31 1.46-1.61 3.58.03 5.19 1.65 1.62 3.49.81 4.11-.19.61-1 .3-2.27.03-2.84-.27-.58.54-.77 1.38-.81.85-.04 2.26.08 3.57.27 1.3.19 3.6.96 4.59 1.5 1 .54.43.61-.26.5-.69-.12-1.46-.39-2.69-.85-1.22-.46-2.26-.69-3.02-.73-.77-.04-.5.39-.35.65.16.27.58.93.69 1.23.12.31-.23 1.46-.23 1.46l.38.74s.46-.74.62-1.12c.15-.38-.04-1.11.11-1.46.16-.35.81-.35 1.31.23.49.58 1.07 1.27 1.34 2.73s-.23 2.5-.23 2.5.61.5.73.84c.11.35-.16 1.73-.16 1.73s.42.27.81-.54c.38-.8.84-2.22.95-2.72.12-.5.46-1.43 1.08-.73.61.69 1.03 1.53 1.15 1.96.11.42.11.77.11.77s1.38-1.35 1.84-2.12c.46-.77 1.42-1.92 2.72-3 1.3-1.07 3.57-3.22 4.68-3.96 1.11-.73 3.94-2.26 4.82-2.8.89-.54 1.04-.58 1.19-2.08.16-1.5.88-2.84 1.23-3.88.34-1.04.42-1.42.42-1.42zM211.24 237.62s-.38-.03-.92-.11-1.69-.46-2.03-.62c-.35-.15-.88-.19-1.23.2-.34.38-3.14 2.03-3.14 2.03h4.64c1.61 0 2.68-1.5 2.68-1.5z"/><path fill="#E9B528" fill-rule="nonzero" d="M224.3 236.83v-.47l-.62-1.33s-.72.46-1.42 1.18c-.91.94-1.88 2.26-2.31 2.82-.78.99-1.86 1.92-.93.34.93-1.58 1.23-2.26 1.98-3.32.74-1.05 1.29-1.51 1.2-1.58-.09-.06-.68-.15-2.62-.4-1.95-.25-3.15-.99-4.05-1.52-.89-.52-2.5-1.39-2.5-1.39s-3.3 1.39-4.54 1.71c-1.23.3-1.97.49-.77 1.08 1.21.59 2.22.77 2.81 1.14.59.38 2.41.96 3.52.96 1.11 0 2.99.03 2.25.81-.74.77-1.57 2.26-2.37 4.52-.81 2.26-.84 4.27-.84 5.26 0 .99.13 1.98.13 1.98s1.35-1.51 5-3.8c3.64-2.3 5-3.07 5.68-3.38.68-.31 1.02-.31.89-1.17-.12-.87-.49-3.01-.49-3.44z"/><path fill="#E9B528" fill-rule="nonzero" d="M238.21 225.77c-.22-.1-.45-.21-.68-.31-.06.01-.11.03-.16.06-.43.21-2.65 1.71-3.55 3.16-.9 1.45-1.79 1.58-.81 0s1.71-2.48 2.48-3.16c.29-.27.56-.49.77-.65-1.78-.87-3.73-1.91-5.6-3.22-.25.49-.71 1.35-1.24 1.9-.77.81-2.48 1.5-2.48 1.5s1.37-1.41 1.84-2.48c.3-.68.49-1.42.59-1.86-1.3-1.02-2.56-2.18-3.67-3.51-.23.92-.97 3.17-3.16 5.63-2.86 3.2-8.59 4.83-8.59 4.83s-2.01.21-.39.64c1.63.42 2.78 1.15 5.94.59 3.17-.55 3.38-.68 3.81-.81.43-.13 1.58-.04 0 .56-1.58.6-5.26 1.15-6.67 1.02-1.41-.12-3.33-.42-1.32.65 2.01 1.06 2.86 1.49 4.1 1.49 1.24 0 1.75.39 2.95.39 1.19 0 1.54-.22 2.39-.39.86-.17 1.41.13 1.41.47 0 .34-1.15 1.28-1.11 3.63.04 2.35.21 3.89.43 4.57.21.69.72 1.8 1.07 2.44.34.64.47 1.28.81-.08.34-1.37 1.11-3.34 1.41-4.66.3-1.33.47-1.37.6-2.05.12-.69.85-1.2.51.04-.34 1.24-.73 2.82-.98 3.93-.26 1.11-.86 3.16.17 1.54 1.02-1.62 4.87-5.94 5.51-6.71.64-.77 1.15-1.5 1.62-2.14.47-.64 1.8-1.49 2.44-2.43.58-.85 2.28-2.51 3.01-3.1-1.09-.46-2.24-.94-3.45-1.48zM163.44 182.46c-.02-.26-.53-1.15-.66-1.62-.13-.46-.59-.18-.59-.18s-1 .57-1.74.77c-.74.21-.84-.07-.92-.46-.07-.38-.25-1.59-.38-2.43-.13-.85-.31-.8-.61-.67-.31.13-1.23.46-1.87.75-.63.28-.43.58-.23.94.21.36.95 1.87 1.28 2.41.33.54.03.77-.36.95-.38.18-.94.26-1.71.51-.76.26-.71.44-.64.69.08.26.59 1.31.87 1.8.28.48.54.15.54.15s.82-.74 1.51-1.08c.69-.33.74-.23.92.29.17.51.97 3.2 1.12 3.71.15.51.41.46.77.31.35-.15.84-.23 1.25-.36.41-.13.56-.95.56-.95s-1.51-2.71-1.92-3.41c-.41-.69 0-.84.31-.89.31-.05 1.2-.18 1.97-.36.76-.18.56-.62.53-.87zM180.47 256.23c-.12-.66 0-1.31-.5-1.81s-1.11-1.5-1.34-2.3c-.23-.81.19-1.2.11-1.66-.07-.46-.69-.46-1.3.04-.61.5-1.42.96-1.42 2.42s.54 3.19 2.57 3.81c2.03.61 1.99.15 1.88-.5zM182.54 255.54s-.42-.27-.62.11c-.19.38-.15.58.39 1.42.53.85.88 1.04 1.49 1.43.62.38.19-.39.12-.62-.08-.23 0-.54-.16-.73-.15-.19-.23-.42-.23-1.04 0-.61-.99-.57-.99-.57z"/><path fill="#E9B528" fill-rule="nonzero" d="M185.03 262.45c.38-.58.73-.73 1.65-1.15.92-.42 2.6-.65 3.18-.69.57-.04 1.87-1.15 1.68-2.31-.19-1.15-1.03-1.61-1.76-1.76-.73-.16-1.38-.16-1.61.19-.23.34-.65.8-1.46 1.07-.8.27-.92.54-1.41.69-.5.16-.12.47-.54.81-.42.35-1 0-1.65-.19-.65-.19-.69-.31-1.42-.35l-2.64-.15s-.08-.04-.5-.04-.46.08-.65.54.04 1.61.5 2.19c.46.58 1.95.85 2.95 1.15 1 .31 1.5.43 2.34.58.84.15.96 0 1.34-.58zM194.34 263.38c.8-.54.34-1.47.15-2.04-.19-.58-1.3-.69-1.87-.69-.58 0-.89 0-1.19.27-.31.26-.73.65-1.57.92-.84.27-1.5.57-2.65 1.04-1.15.46-1.49 1.23-1.99 1.54-.5.3-1.46 0-1.46 0s-.69-.2-.92 0c-.23.18 0 .57.46 1.07.46.5 1.35.46 2.34.77 1 .31 1.19.07 1.57-.19.39-.27.69-.85 1.38-1.27.69-.42 2.19-.5 2.91-.58.73-.08 2.04-.31 2.84-.84zM194.34 259.88c.34.31.73.73 1.03.23.31-.5.81-1.54.46-2.15-.34-.62-.76-1.16-.76-1.16s-.58 1.77-.85 2.23c-.26.46-.23.54.12.85zM191.24 254.57c0-1-.69-2.23-.69-2.23s-.23.93-.66 1.73c-.42.81-.84 1.23-.84 1.23s1 .27 1.38.27c.38 0 .81 0 .81-1z"/><path fill="none" d="M185.49 256.69c1.07-.23 1.65-.66 2.11-1.04.46-.38.72-1.42.42-1.96-.31-.54-1.08-1.11-1.38-1.11h-.58s-.3 1-.73 1.49c-.42.51-.91.85-.88 1.5.04.66-.03 1.35 1.04 1.12"/><path fill="#E9B528" fill-rule="nonzero" d="M187.67 251.81c.04-.5-.15-1.04-.5-1.39l-.57-.57s-.08.77-.15 1.19c-.08.42-.12.5-.12.5s.31.31.58.42c.26.12.72.35.76-.15zM174.42 224.54s1.27 0 .73-4.53c-.55-4.52-2.9-8.81-4.77-11.77-1.87-2.96-3.81-7.61-4.65-10.08-.85-2.48-1.41-5.87-1.41-7.64 0-1.78.75-2.69.75-2.69s.33-.48.03-.79c-.31-.3-.78-.02-1.27.46-.48.48-.98 1.37-1.18 2-.21.64-.21.86-.21.86s-.96-.22-2.5-.1c-1.54.13-2.27.26-2.33.59-.05.33.21.58 1.32 1.06 1.11.48 1.82.68 2.38 1.35.55.66 1.97 3.97 2.41 5.57.43 1.6 1.36 5.93 1.74 9.34.38 3.4 1.53 7.52 3.13 10.97.53 1.12 3.41 6.48 5.83 5.4zM177.22 232.52c-1.04.59-1.01 4.87-.54 7.09.46 2.23 2.64 4.99 3.3 5.73.66.74.82.74 1.17.55.35-.2.5-.2.5-.2s.93-.31 1.64-.85c.69-.55.42-1.91.3-3.12-.11-1.21-1.04-3.63-2.75-6.43-1.71-2.81-2.57-3.35-3.62-2.77zM178.39 229.05c0-1.39-1.21-2.45-2.61-2.45-.66 0-1.24.16-1.6.49-1.41 1.28-.56 4.46 1.48 4.46.74 0 1.61-.13 2.14-.64.48-.45.59-1.2.59-1.86zM198.65 269.32c-.56-.09-.89-.32-1.71-.88s-2.14-1.71-2.37-2.27c-.23-.56-.23-.59-1.02-.33-.79.26-1.9.23-2.76.26-.85.04.1.99.69 1.88.59.89.4 3.88.4 3.88s0 .26-.14.69c-.13.43-.03.72.2.82.23.1.36-.1.96-.79.59-.69 1.67-2.5 1.67-2.5s.17.03 1.09.27c.92.23 2.4.09 3.16-.14.75-.23.39-.79-.17-.89z"/><path fill="#E9B528" fill-rule="nonzero" d="M195.13 271.63c-.39-.07-.56-.1-.76.16-.19.26-.36.76-.45 1.02-.1.26-.07.5.16.69.23.2.56.43.56.43s.33.36.66.53c.33.16.39-.33.39-.69 0-.37.2-1.02.2-1.45 0-.43-.36-.63-.76-.69zM185.07 127.11c.11 2.36 2.71 6.86 4.2 9.27 1.48 2.41 1.89 3.38 1.63 3.53-.25.16-.87-1.07-1.68-2.15-.82-1.07-2.41-3.58-3.74-5.48-1.33-1.89-3.27-6.39-3.52-6.8-.26-.41-.36-.67-1.03-.16-.66.51-1.94 5.48-.4 8.86 1.53 3.38 3.83 5.83 4.8 7.01.97 1.18 2.25 3.02 2.05 3.18-.21.15-.57-.31-1.74-1.54-1.18-1.23-3.12-3.33-4.4-4.86-1.04-1.25-2.45-3.78-2.94-4.69-.18-.34-.42-.25-.6-.07-.42.42-1.1 1.41-.8 4.09.41 3.74 2.35 5.89 4.09 7.78 1.73 1.9 3.47 3.49 3.22 3.74-.26.26-2.05-1.33-3.28-2.51-1.22-1.17-4.24-4.09-4.9-4.91-.67-.82-1.64-.41-1.59 2.81.05 3.23 3.63 6.5 5.11 8.3 1.49 1.79 3.33 2.86 3.17 3.22-.15.36-1.63-.56-2.6-1.23-.97-.66-4.6-3.02-5.32-3.53-.71-.51-1.07.46-.15 3.53s3.58 5.53 5.16 6.66c1.59 1.13 4.14 2.51 3.99 2.87-.15.35-1.23-.11-2.71-.82-1.48-.72-3.27-1.39-4.55-1.74-1.28-.36-1.28.56-1.28.56s-.25 2.61 1.64 4.71 4.04 2.92 6.08 3.27c2.05.36 2.35.47 2.3.77-.05.31-.25.36-.71.36-.46 0-2.36.21-4.09.21-1.74 0-2.66.41-2.66 1.17 0 .77-.05 1.8 2.55 3.54 2.61 1.74 5.52 1.99 6.75 2.25 1.23.26 1.28.36 1.02.72-.25.35-.81.3-2.76.51-1.94.2-3.12.97-3.37 1.48-.26.52.15 2.05 1.74 3.13 1.58 1.07 3.63 1.43 6.69 1.22 3.07-.2 3.84-.25 3.94.26.1.51-.92.67-2.45.92-1.54.26-2.71.26-3.58.98-.87.71-.21 2.2 1.27 3.27 1.49 1.08 5.17 1.08 6.7.98 1.54-.11 3.89-.67 4.04-.26.15.41-1.12 1.02-2.71 1.59-1.58.56-2.04.92-2.35 1.58-.31.67-.05 1.28 1.84 2 1.89.72 4.65.72 6.08.05 1.44-.66 2.2-.92 2.46-.66.25.25 0 .51-.31.87-.31.35-1.53 1.33-3.12 1.74-1.58.41-1.74.41-2.3 1.69-.56 1.28.87 2.3 3.73 2.4 2.87.1 6.7-1.02 7.93-1.74 1.22-.72 1.68-.87 1.89-.61.2.25.15.41-.46.87-.62.46-2.56 1.84-3.53 2.1-.97.25-1.07.97-1.07 1.63 0 .67-.26 2 2.3 2.62 2.55.61 5.57.15 8.33-1.8.89-.62 1.41-1.14 1.7-1.59-.22-2.61-.11-4.41.21-6.06-.54-.06-1.57-.22-2.62-.64-1.54-.61-2.15-2.05-2.51-2.82-.36-.76-.87-.76-1.48-.56-.62.21-1.23.46-2.1.41-.87-.05-2.71-.51-4.04-2.1s-1.07-3.12-1.12-3.89c-.05-.77-1.28-.2-1.89-.2-.62 0-2.41-.26-4.04-1.39-1.64-1.12-1.64-2.66-1.79-3.27-.15-.62-.82-1.03-1.33-1.23-.51-.21-1.33-.41-2.45-1.33-1.13-.92-1.54-2.72-1.59-3.33-.05-.61-.72-.67-3.02-1.84-2.3-1.18-2.09-3.64-1.99-4.61.1-.97 1.18-1.79 1.18-2.15 0-.36-.77-.46-1.54-.92-.76-.46-2.71-1.23-2.76-4.1-.05-2.87 1.84-3.17 1.84-3.17s-.36-.16-1.12-.62c-.77-.46-2.86-1.89-2.86-3.58 0-1.69.76-2.46 1.32-2.87.57-.41 2.1-.82 2.1-.82s-.97-.61-1.38-1.94c-.41-1.33-.56-2.97.41-4.15.97-1.18 2.61-1.18 3.48-1.18.86 0 1.63.46 1.94.21.31-.26.36-.46.05-1.13-.31-.66-.36-2.3-.1-2.86.25-.57.3-1.69 2.5-2.41 2.2-.72 4.5.77 5.22 1.18.71.41.41-.57.41-1.28 0-.72-1.49-2.51-3.17-5.07-1.69-2.56-2.46-3.89-4.35-7.78-1.89-3.89-3.12-8.91-3.37-10.19-.26-1.28-.77-.67-.77-.67s-.51.21-1.69 3.17c-1.17 2.98-1.38 5.69-1.28 8.04z"/><path fill="#E9B528" fill-rule="nonzero" d="M223.64 179.47c-1.31-.07-3.03-.79-4.34-2.7-1.32-1.92-3.3-2.38-6.72-2.31-3.42.06-5-1.59-5.86-3.96-.86-2.38.13-5.08 3.62-6.79 3.49-1.72 5.07-3.63 5.2-6.6.14-2.96-3.49-6.66-7.11-10.81-3.62-4.16-6.45-10.03-6.45-10.03s-1.05 1.39-1.05 2.77c0 1.39.52 2.84 0 3.23-.53.4-.73-.59-2.84-1.51-2.1-.93-3.82-1.06-5.13.46-1.32 1.52 0 4.15 1.18 5.41 1.19 1.25 2.18 2.17 1.85 2.64-.33.46-2.11-.73-2.7-1.13-.6-.39-1.98-1.91-4.02-1.71-2.04.2-2.77.79-2.96 2.5-.2 1.72 1.84 3.24 3.16 3.9 1.31.65 1.84 1.25 1.51 1.51-.33.27-.66 0-1.25-.2-.59-.19-2.24-.39-3.29 0-1.06.4-2.77 1.85-1.19 3.63 1.58 1.78 4.88 2.44 5.53 2.57.66.13.99-.06 1.06.46.06.53-1.39.53-3.16.6-1.78.07-2.31 1.78-2.04 3.1.26 1.32 3.22 2.77 4.87 3.03 1.64.27 2.24 0 2.37.46.13.46-.2.66-1.12.93-.92.26-2.7.46-3.03 1.91-.33 1.45-.39 2.11.99 3.36 1.38 1.26 3.62 1.06 4.28.92.66-.13 1.45-.85 2.11-.19.65.66-.6 1.18-1.72 1.98-1.12.79-1.05 2.3.86 3.36 1.91 1.06 3.82.66 4.61.4.79-.27 1.84-1.52 2.37-.73s-1.65 1.06-2.57 2.18c-.92 1.12-.59 2.96 1.25 4.08 1.85 1.13 4.87.33 5.4-.13.53-.46 1.19-.66 1.58-.26.4.39-.2 1.45-.59 2.37-.4.93-1.12 3.63 1.65 4.69 2.76 1.05 5.26-1.32 5.72-1.79.47-.46.93-.52 1.32-.32.4.19.2.59-.13 1.05-.33.46-1.05 2.44.92 3.83 1.35.94 2.82.87 3.62.73.41-1.54.95-3.19 1.49-5.5 0 0-1.15.97-1.49 1.21-.35.24-.66.53-.85.4-.18-.14.72-.61.95-.9.24-.29.72-.74.74-1.05.03-.32.19-.51.66-.9.15-.13.26-.27.36-.41.31-1.54.63-3.34.91-5.52.19-1.48.3-2.88.34-4.18l-.87-.04zM167.36 138.37c2.94 5.95 7.1 9.3 7.1 9.3s-.55-1.48-.79-2.5c-.24-1.01-.05-2.16-.05-2.16s-1.05-1.34-2.97-4.31c-1.93-2.97-2.95-7.36-2.95-7.36s1.8 4.39 3.19 6.72c1.39 2.32 2.99 4.22 2.99 4.22s.56-2.05.97-2.16c.4-.11.69.21 1.04.67.35.45.64.41.64.41s-.47-.98-1.2-2.16c-.33-.54-.82-1.11-1.16-1.66-1.1-1.73-3.46-5.02-4.68-8.31-1.21-3.3-3.86-11.56-4.32-13.99-.46-2.42-.93-1.09-1.39.7-.46 1.79-1.09 4.33-.69 8.14.41 3.82 1.33 8.5 4.27 14.45zM171.17 154.43c1.09.81 2.71 1.91 2.71 1.91s-.26-.6-.42-1.32c-.16-.71-.23-2.19-.23-2.19s-1.29-1.13-2.19-1.91c-.9-.79-2.02-1.81-4.26-4.57-2.23-2.77-.44-1.11 1.38.87 1.82 1.99 5.3 4.87 5.3 4.87s0-.04.03-.64c.02-.6.2-1.04.53-1.46.32-.41.15-.47-1.81-1.97-1.96-1.51-7.04-7.23-9.12-10.64-2.07-3.4-4.32-8.03-4.32-8.03s-1.1 6.82 3.05 14.33c4.16 7.51 8.25 9.94 9.35 10.75zM192.96 197.44c2.28-.88 1.66-3.13 1.66-3.17 0-.03-1.4.45-2.68.92-1.29.48-4.45 1.4-5.69 1.44-1.25.03-1.25-.15-1.29-.33-.04-.19.96 0 2.75-.33 1.8-.33 4.96-1.99 5.51-2.36.55-.37.48-.44-.33-.51-.81-.08-1.5-.44-1.8-.7-.29-.26-1.14.11-3.19.59-2.06.48-6.32 1.21-9.58 1.21-3.27 0-6.32-.55-6.83-.66-.52-.11-1.07.18.51 2.83s7.12 4.08 10.98 4.05c3.85-.04 7.71-2.1 9.98-2.98zM182.71 191.98c3.98.03 5.46-1.15 5.46-1.15s0-.21-.54-1.01c-.54-.81-.43-2.2-.43-2.2s-.95.17-2.6.41c-1.65.23-3.57.47-5.69.1-2.13-.37-1.22-.61.47-.41 1.68.21 4.92-.4 5.96-.77 1.05-.37.61-.71-.1-.95-.71-.23-2.63-1.45-2.63-1.45s-4.82.61-9.3.1-7.31-1.65-8.22-1.79c-.91-.13-.88.24-.88.24s-.23.4 1.32 2.83c1.55 2.44 4.58 4.02 7.14 4.76 2.56.75 6.07 1.25 10.04 1.29zM181.7 182.66s-.17-.23-.4-1.04c-.24-.82.44-1.42.44-1.42s-.91-.27-3.88-.64c-2.96-.38-3.13-.61-4.95-1.02-1.82-.4-3.04-.94-3-1.14.03-.21.61.1 1.68.5 1.08.41 5.63.88 7.55 1.15 1.92.27 3 .47 3.34.27.34-.2 1.51-.51 1.51-.51s-.8-.23-1.81-.4a6.483 6.483 0 01-2.47-.98c-.53-.37-.7-.47-3.13-.74-2.43-.27-4.38-1.05-8.73-2.64-4.34-1.58-7.61-3.47-8.49-4.18-.88-.71-.81-.2-.57.71.23.91.2 2.06 2.39 4.62 2.19 2.57 3.27 3.68 8.8 5.71 5.52 2.02 11.72 1.75 11.72 1.75zM165.36 169.2c4.89 3.44 10.61 4.7 11.83 4.85.27-.31-.3-1.46-.04-2.16.32-.83.85-.84 2.03-.91 1.18-.07.4-.3.13-.3s-.34-.03-2.29-.54c-1.96-.5-3.94-.81-6.64-1.82-2.7-1.01-3.5-1.76-3.44-1.96.07-.2 1.25.64 3.74 1.59 2.5.94 5.4 1.31 6.98 1.65 1.58.34.2-.34-.54-.78s-1.79-2.05-1.79-2.05-1.75-.31-4.61-1.19c-2.87-.87-5.26-1.85-7.65-3.2-.83-.47-1.62-1.07-2.48-1.68-1.64-1.18-3.28-2.38-3.92-2.84-.98-.71-.68-.14-.58.3.1.44.78 2.46 2.33 4.69 1.55 2.23 2.05 2.9 6.94 6.35zM164.55 159.51c4.82 3.81 8.96 4.99 9.67 5.3.71.3.64-.1.51-.51-.14-.4-.24-1.72-.24-1.72s-1.72-.98-3.64-2.09c-1.92-1.12-4.04-2.64-5.46-3.61-1.41-.98-.57-.91-.13-.54.43.37 2.39 1.52 4.34 2.73 1.96 1.22 4.92 2.97 4.92 2.97s.07-.64.48-1.05c.4-.4 1.41-.3 1.41-.3s-.5-.51-.81-.98c-.3-.47-1.89-.98-3.67-1.82-1.79-.84-4.99-3.21-7.35-5.2-2.36-1.99-6.94-6.98-7.24-7.39-.31-.4-.51-.34-.54.17-.04.5-.2.84.3 3.14.51 2.29 2.63 7.09 7.45 10.9zM181.61 123.44c.55 1.14 1.14 1.99 1.57 2.73.66 1.12 1.02 1.84 1.02 1.84s.13-.39.03-1.06-.21-1.6-.02-2.71c.09-.59.22-1.18.19-1.71-.04-.6-.24-1.12-.32-1.46-.16-.65-.85-3.46-1.19-5.44-.33-1.99-.69-4.82-.67-7.32.03-2.51.39-1.24.39-.03s.13 3.07.51 5.93c.39 2.86 1.6 7.22 1.6 7.22s.08-.67.44-1.62c.36-.96.95-2.04 1.41-3.23.47-1.18.3-1.38.3-1.38s-1.69-8.1-2.13-11.93c-.45-3.82-1.16-13.88-1.16-13.88-2.47 2.49-4.32 9.04-4.64 15.24-.25 4.67.51 8.99.72 10.75.44 3.47 1.04 6.18 1.95 8.06zM176.12 136.22c.07-1.83.49-3.22 1.68-3.62 0 0-1.05-1.84-1.96-4.45-.63-1.8-1.14-4.09-1.41-5.86-.64-4.33-1.16-8.81.13-1.48 1.3 7.31 2.85 9.91 2.85 9.91l1.87 3.04c-.27-1.34-.32-2.28-.25-3.74.08-1.46.26-3.44.71-5.01 0 0-2.27-4.53-3.69-9.97s-2.23-10.39-2.26-13.35c-.13-2.85-.2-3.95-.2-3.95s-2.33 1.75-3.1 10.63c-.78 8.87 1.55 17.36 2.71 20.6 1.17 3.24 2.92 7.25 2.92 7.25zM201.52 203.91s-.37-.26-1.47-.96-.77-2.79-.77-2.79-.3.22-1.1.77c-.81.55-1.73 1.17-2.83 1.62-1.1.44-1.65.73-2.35.95-.7.22-.51-.07.07-.4.59-.33.78-.52 2.24-1.1 1.47-.59 4.41-3.17 4.41-3.17s-.7-.07-1.91-.11c-1.21-.03-2.75-.66-2.75-.66s-1.21 1.1-6.1 3.2c-4.88 2.1-9.03 2.65-9.03 2.65s.51 2.5 2.86 3.34c1.95.85 4.63 1.36 9.88.11 5.25-1.25 8.85-3.45 8.85-3.45zM207.94 208.91c.41-2.06-.77-3.5-.77-3.5s-.26.15-.99.81c-.73.67-1.8 1.92-3.85 2.94-2.06 1.03-2.79.96-.81-.11 1.98-1.06 4.88-4.08 4.88-4.08l-.77-.29c-.77-.3-2.09.22-7.6 3.53-5.51 3.31-8.74 3.42-8.74 3.42s2.46 2.98 9.14 2.76c6.69-.22 9.11-3.42 9.51-5.48zM220.57 206.52s-.73 1.03-1.72 1.69c-1 .66-3.64 1.06-3.64 1.06s-.11.3-.62.96c-.52.66-1.65 2.24-2.83 3.09-1.17.85-3.01 1.4-3.12 1.18-.11-.22 1.07-.67 2.2-1.36 1.14-.7 2.17-1.99 2.94-2.87.77-.89-.33-.74-.33-.74s-1.39.04-2.68-.07c-1.28-.11-1.03 0-1.39.63-.37.62-.89 1.17-1.84 2.28-1.16 1.34-2.27 2.56-3.38 3.89-.73.88-.18 1.14-.18 1.14s.33.55 3.3.88c1.84.21 3.83-.02 5.92-1.23 1.3-.75 2.63-1.94 4-3.44 3.56-3.89 3.37-7.09 3.37-7.09zM222.15 214.57c-.73.96-1.14 1.36-1.14 1.36s.52-1.58.96-2.32c.23-.39.49-.76.68-1.02-.5-1.11-.9-2.29-1.2-3.57-.32 1.05-1.34 4.16-2.6 6.18-1.54 2.46-2.9 3.34-2.02 4 .88.66 2.6.81 4.55-.15 1.88-.92 2.42-2.53 2.69-3.83-.33-.51-.64-1.04-.93-1.6-.24.15-.59.43-.99.95zM333.9 161.16c1.58-1.13 4.24-3.59 5.16-6.66.92-3.07.56-4.04-.15-3.53-.72.51-4.35 2.87-5.32 3.53-.97.67-2.45 1.59-2.61 1.23-.15-.36 1.69-1.43 3.17-3.22 1.49-1.8 5.06-5.07 5.12-8.3.05-3.22-.92-3.63-1.59-2.81-.66.82-3.68 3.74-4.91 4.91-1.22 1.18-3.01 2.77-3.27 2.51-.26-.26 1.48-1.84 3.22-3.74 1.74-1.89 3.68-4.04 4.09-7.78.29-2.68-.38-3.67-.8-4.09-.18-.18-.42-.27-.6.07-.5.91-1.91 3.44-2.95 4.69-1.27 1.53-3.22 3.63-4.39 4.86-1.17 1.23-1.53 1.69-1.74 1.54-.2-.16 1.07-2 2.05-3.18.97-1.18 3.27-3.63 4.8-7.01 1.53-3.38.26-8.35-.41-8.86-.66-.51-.76-.25-1.02.16-.26.41-2.2 4.91-3.53 6.8-1.32 1.9-2.91 4.41-3.73 5.48-.82 1.08-1.43 2.31-1.69 2.15-.25-.15.16-1.12 1.64-3.53 1.48-2.41 4.09-6.91 4.19-9.27.1-2.35-.1-5.06-1.28-8.04-1.17-2.96-1.68-3.17-1.68-3.17s-.51-.61-.77.67c-.25 1.28-1.48 6.3-3.37 10.19-1.9 3.89-2.66 5.22-4.35 7.78-1.69 2.56-3.17 4.35-3.17 5.07 0 .71-.31 1.69.41 1.28.72-.41 3.01-1.9 5.21-1.18s2.25 1.84 2.51 2.41c.26.56.2 2.2-.1 2.86-.31.67-.26.87.05 1.13.31.25 1.07-.21 1.94-.21.87 0 2.51 0 3.48 1.18.97 1.18.82 2.82.41 4.15-.41 1.33-1.38 1.94-1.38 1.94s1.53.41 2.09.82c.56.41 1.33 1.18 1.33 2.87 0 1.69-2.09 3.12-2.86 3.58-.77.46-1.13.62-1.13.62s1.9.3 1.84 3.17c-.05 2.87-1.99 3.64-2.76 4.1-.76.46-1.53.56-1.53.92s1.07 1.18 1.18 2.15c.1.97.3 3.43-2 4.61-2.3 1.17-2.96 1.23-3.02 1.84-.05.61-.45 2.41-1.58 3.33-1.12.92-1.94 1.12-2.45 1.33-.51.2-1.18.61-1.33 1.23-.16.61-.16 2.15-1.79 3.27-1.64 1.13-3.43 1.39-4.04 1.39-.61 0-1.84-.57-1.89.2-.05.77.2 2.3-1.12 3.89-1.34 1.59-3.18 2.05-4.05 2.1-.86.05-1.48-.2-2.09-.41-.61-.2-1.13-.2-1.48.56-.36.77-.98 2.21-2.51 2.82-1.05.42-2.08.58-2.62.64.31 1.65.43 3.45.21 6.06.29.45.81.97 1.7 1.59 2.76 1.95 5.77 2.41 8.33 1.8 2.55-.62 2.3-1.95 2.3-2.61 0-.67-.1-1.39-1.07-1.64-.98-.26-2.92-1.64-3.53-2.1-.61-.46-.67-.62-.46-.87.2-.26.66-.1 1.89.61 1.23.72 5.06 1.84 7.92 1.74 2.87-.1 4.3-1.12 3.73-2.4-.56-1.28-.71-1.28-2.3-1.69-1.58-.41-2.81-1.38-3.11-1.74-.31-.36-.57-.62-.31-.87.26-.26 1.02 0 2.45.66 1.44.67 4.19.67 6.09-.05 1.89-.72 2.14-1.33 1.84-2-.31-.66-.77-1.02-2.35-1.58-1.59-.57-2.87-1.18-2.71-1.59.15-.41 2.5.15 4.03.26 1.54.1 5.22.1 6.7-.98 1.48-1.07 2.15-2.56 1.28-3.27-.87-.72-2.04-.72-3.58-.98-1.53-.25-2.55-.41-2.45-.92.1-.51.87-.46 3.93-.25 3.07.2 5.12-.16 6.7-1.23 1.59-1.08 1.99-2.61 1.74-3.13-.26-.51-1.43-1.28-3.38-1.48-1.94-.2-2.5-.15-2.76-.51-.25-.36-.2-.46 1.03-.72 1.22-.26 4.14-.51 6.74-2.25 2.61-1.74 2.56-2.77 2.56-3.53 0-.77-.92-1.18-2.66-1.18-1.74 0-3.63-.21-4.09-.21-.46 0-.66-.05-.71-.35-.06-.31.25-.41 2.3-.77 2.04-.36 4.19-1.18 6.08-3.28 1.89-2.1 1.64-4.71 1.64-4.71s0-.92-1.28-.56c-1.28.35-3.07 1.02-4.55 1.74-1.48.71-2.56 1.17-2.71.82-.15-.36 2.4-1.74 3.99-2.87z"/><path fill="#E9B528" fill-rule="nonzero" d="M327.27 154.15c-1.06-.4-2.7-.2-3.29 0-.6.19-.93.46-1.26.19-.32-.26.2-.85 1.52-1.51s3.36-2.18 3.16-3.89c-.2-1.72-.92-2.31-2.96-2.51-2.04-.2-3.43 1.32-4.02 1.71-.59.4-2.37 1.59-2.7 1.13-.33-.47.66-1.39 1.84-2.64 1.19-1.26 2.51-3.89 1.19-5.41-1.32-1.52-3.03-1.39-5.14-.46-2.1.92-2.3 1.91-2.83 1.51-.52-.39 0-1.84 0-3.23 0-1.38-1.05-2.77-1.05-2.77s-2.83 5.87-6.46 10.03c-3.62 4.15-7.24 7.85-7.11 10.81.13 2.97 1.71 4.88 5.21 6.6 3.48 1.71 4.47 4.42 3.62 6.79-.86 2.37-2.44 4.02-5.86 3.96-3.43-.07-5.4.39-6.72 2.31-1.32 1.91-3.03 2.63-4.35 2.7l-.86.04c.04 1.31.15 2.7.34 4.18.28 2.18.59 3.98.91 5.52.09.14.21.29.35.41.48.39.64.58.66.9.03.31.51.76.74 1.05.24.29 1.14.77.95.9-.18.13-.5-.16-.84-.4-.34-.24-.8-.63-1.12-.91l-.38-.3c.55 2.31 1.09 3.96 1.5 5.51.79.13 2.27.2 3.62-.74 1.97-1.39 1.25-3.37.92-3.83-.33-.46-.53-.85-.14-1.05.4-.2.86-.14 1.32.33.46.46 2.96 2.83 5.73 1.78 2.77-1.06 2.04-3.76 1.65-4.68-.4-.93-.99-1.99-.6-2.38.4-.39 1.06-.2 1.58.26.53.47 3.56 1.26 5.4.14 1.85-1.13 2.18-2.97 1.25-4.09-.92-1.12-3.09-1.39-2.56-2.18.52-.79 1.58.46 2.37.73.79.26 2.7.66 4.61-.4 1.91-1.05 1.97-2.57.85-3.36s-2.37-1.32-1.71-1.98c.66-.66 1.45.07 2.11.2.66.13 2.9.33 4.28-.93 1.38-1.25 1.32-1.91.99-3.36-.33-1.45-2.11-1.65-3.03-1.91-.92-.27-1.25-.46-1.12-.93.13-.46.72-.19 2.37-.46 1.64-.26 4.61-1.71 4.87-3.03.27-1.32-.26-3.03-2.04-3.1-1.78-.07-3.23-.07-3.16-.59.06-.53.39-.33 1.05-.47.66-.13 3.95-.79 5.53-2.57 1.59-1.78-.13-3.23-1.18-3.62zM339.25 147.67s4.15-3.35 7.1-9.3c2.94-5.95 3.86-10.63 4.26-14.45.41-3.81-.23-6.35-.69-8.14-.46-1.8-.92-3.12-1.38-.7-.46 2.43-3.12 10.69-4.33 13.98-1.21 3.3-3.57 6.59-4.67 8.32-.34.55-.83 1.12-1.16 1.66a27.98 27.98 0 00-1.21 2.16s.3.04.65-.41c.34-.46.64-.78 1.04-.67.4.11.96 2.16.96 2.16s1.61-1.9 3-4.22c1.39-2.33 3.18-6.72 3.18-6.72s-1.01 4.39-2.94 7.36c-1.93 2.97-2.97 4.31-2.97 4.31s.19 1.15-.05 2.16c-.24 1.02-.79 2.5-.79 2.5zM355.07 129.35s-2.38 4.63-4.46 8.03c-2.07 3.41-7.15 9.13-9.11 10.64-1.96 1.5-2.13 1.56-1.81 1.97.32.42.51.86.53 1.45.02.6.02.65.02.65s3.48-2.88 5.31-4.87c1.81-1.98 3.61-3.64 1.38-.88-2.24 2.77-3.37 3.79-4.27 4.57-.89.79-2.18 1.92-2.18 1.92s-.07 1.48-.23 2.19c-.17.72-.42 1.31-.42 1.31s1.61-1.09 2.71-1.9c1.1-.81 5.19-3.24 9.35-10.75 4.15-7.51 3.18-14.33 3.18-14.33zM334.77 104.63c-.33-6.2-2.17-12.75-4.64-15.24 0 0-.71 10.06-1.16 13.88-.44 3.83-2.14 11.93-2.14 11.93s-.16.2.3 1.38c.47 1.19 1.06 2.27 1.42 3.23.36.95.44 1.62.44 1.62s1.21-4.36 1.59-7.22c.39-2.86.52-4.72.52-5.93s.36-2.48.39.03c.02 2.5-.34 5.33-.68 7.32-.33 1.98-1.03 4.79-1.18 5.44-.08.34-.28.86-.32 1.46-.03.53.1 1.12.19 1.71.18 1.11.08 2.04-.02 2.71-.11.67.02 1.06.02 1.06s.37-.72 1.02-1.84c.43-.74 1.03-1.59 1.58-2.73.91-1.88 1.51-4.59 1.94-8.06.22-1.76.98-6.08.73-10.75zM340.5 128.97c1.16-3.24 3.5-11.73 2.72-20.6-.78-8.88-3.11-10.63-3.11-10.63s-.06 1.1-.19 3.95c-.03 2.96-.84 7.91-2.26 13.35-1.43 5.44-3.69 9.97-3.69 9.97.44 1.57.63 3.55.7 5.01.07 1.46.03 2.4-.25 3.74l1.88-3.04s1.55-2.6 2.84-9.91c1.3-7.32.78-2.85.13 1.49-.26 1.76-.77 4.05-1.4 5.85-.91 2.61-1.96 4.45-1.96 4.45 1.18.4 1.6 1.79 1.68 3.62 0 0 1.75-4.01 2.91-7.25zM342.22 193.54c-.52.11-3.56.66-6.83.66s-7.52-.73-9.58-1.21c-2.06-.48-2.9-.85-3.19-.59-.3.26-1 .62-1.8.7-.81.07-.89.14-.33.51.54.37 3.7 2.03 5.5 2.36 1.8.33 2.79.14 2.76.33-.04.18-.04.36-1.29.33-1.25-.04-4.41-.96-5.69-1.44-1.28-.47-2.68-.95-2.68-.92 0 .04-.62 2.29 1.65 3.17 2.28.88 6.13 2.94 9.99 2.97 3.85.04 9.4-1.39 10.98-4.04 1.57-2.65 1.02-2.94.51-2.83zM348.62 182.86c-.91.14-3.74 1.28-8.22 1.79-4.49.51-9.31-.1-9.31-.1s-1.92 1.22-2.62 1.45c-.71.24-1.15.58-.11.95 1.05.37 4.28.98 5.97.77 1.68-.2 2.59.04.47.41s-4.04.13-5.7-.1c-1.65-.24-2.59-.41-2.59-.41s.1 1.39-.44 2.2c-.54.8-.54 1.01-.54 1.01s1.49 1.18 5.46 1.15c3.98-.04 7.48-.54 10.04-1.29 2.57-.74 5.6-2.32 7.15-4.76 1.55-2.42 1.31-2.83 1.31-2.83s.04-.37-.87-.24zM354.35 169.87c-.88.71-4.15 2.6-8.49 4.18-4.35 1.59-6.31 2.37-8.73 2.64-2.43.27-2.6.37-3.14.74s-1.45.81-2.46.98c-1.01.17-1.82.4-1.82.4s1.18.31 1.52.51c.33.2 1.41 0 3.33-.27 1.92-.27 6.47-.74 7.55-1.15 1.08-.4 1.65-.71 1.69-.5.03.2-1.18.74-3 1.14-1.82.41-1.99.64-4.95 1.02-2.97.37-3.88.64-3.88.64s.67.6.44 1.41c-.24.82-.41 1.05-.41 1.05s6.2.27 11.73-1.75c5.53-2.03 6.61-3.14 8.8-5.71 2.19-2.56 2.15-3.71 2.39-4.62.23-.91.3-1.42-.57-.71zM357.04 157.85c-.64.47-2.29 1.67-3.93 2.85-.86.61-1.65 1.21-2.47 1.68-2.39 1.35-4.78 2.33-7.65 3.2-2.86.88-4.62 1.18-4.62 1.18s-1.04 1.62-1.78 2.06c-.74.44-2.13 1.12-.54.78 1.58-.34 4.48-.71 6.97-1.65 2.5-.95 3.68-1.79 3.74-1.59.07.2-.74.94-3.43 1.96-2.7 1.01-4.69 1.32-6.64 1.82-1.96.51-2.02.54-2.29.54s-1.05.23.13.3c1.18.07 1.71.08 2.02.91.27.7-.3 1.84-.03 2.16 1.22-.15 6.94-1.41 11.83-4.86 4.88-3.44 5.39-4.11 6.94-6.34 1.55-2.23 2.22-4.25 2.32-4.69.11-.44.41-1.01-.57-.31zM338.71 160.99c.4.41.47 1.05.47 1.05s2.97-1.76 4.92-2.97c1.95-1.22 3.91-2.36 4.35-2.73.44-.37 1.28-.44-.14.54-1.41.98-3.53 2.49-5.45 3.61-1.93 1.11-3.64 2.09-3.64 2.09s-.11 1.32-.24 1.72c-.13.41-.2.81.51.51.7-.31 4.85-1.49 9.67-5.3 4.82-3.81 6.94-8.61 7.44-10.9.51-2.3.34-2.64.31-3.14-.04-.51-.24-.57-.54-.17-.31.41-4.89 5.4-7.25 7.39-2.36 1.99-5.56 4.35-7.34 5.2-1.79.84-3.37 1.35-3.68 1.82-.3.47-.8.98-.8.98s1.01-.1 1.41.3zM318.76 198.06s-1.65.63-2.86.66c-1.22.04-1.91.11-1.91.11s2.93 2.58 4.4 3.17c1.47.58 1.65.77 2.24 1.1.59.33.77.62.08.4-.7-.22-1.25-.51-2.35-.95-1.11-.45-2.02-1.07-2.83-1.62s-1.1-.77-1.1-.77.33 2.09-.77 2.79c-1.1.7-1.47.96-1.47.96s3.6 2.21 8.84 3.45c5.26 1.25 7.94.74 9.88-.11 2.35-.84 2.86-3.34 2.86-3.34s-4.14-.55-9.03-2.65c-4.88-2.1-5.98-3.2-5.98-3.2zM308.08 204.68l-.77.29s2.9 3.02 4.88 4.08c1.98 1.07 1.25 1.14-.81.11-2.06-1.02-3.12-2.27-3.85-2.93-.74-.67-1-.81-1-.81s-1.17 1.43-.77 3.49c.41 2.06 2.83 5.26 9.51 5.48 6.68.22 9.14-2.76 9.14-2.76s-3.23-.11-8.73-3.42c-5.51-3.31-6.83-3.82-7.6-3.53zM306.17 212.36c-.37-.62-1.95-3.01-3.23-2.9-1.29.11-2.68.07-2.68.07s-1.1-.15-.33.74c.77.88 1.8 2.17 2.93 2.87 1.14.69 2.32 1.13 2.21 1.36-.11.22-1.95-.33-3.12-1.18-1.18-.85-2.32-2.43-2.83-3.09-.52-.66-.63-.96-.63-.96s-2.64-.4-3.63-1.06c-.99-.66-1.73-1.69-1.73-1.69s-.18 3.2 3.38 7.09c1.36 1.5 2.7 2.69 4 3.44 2.09 1.21 4.08 1.44 5.92 1.23 2.97-.33 3.3-.88 3.3-.88s.55-.26-.18-1.14c-1.11-1.33-2.22-2.55-3.38-3.9zM292.25 209.02c-.29 1.28-.7 2.46-1.19 3.57.19.26.44.63.68 1.02.44.74.95 2.32.95 2.32s-.4-.4-1.13-1.36c-.4-.52-.75-.8-1-.95-.28.56-.59 1.09-.92 1.6.26 1.3.81 2.91 2.69 3.84 1.94.95 3.67.8 4.55.14.88-.66-.48-1.54-2.02-4-1.26-2.02-2.28-5.13-2.61-6.18zM290.59 116.25c0 .69.61 1.25 1.36 1.25.76 0 1.37-.56 1.37-1.25s-.61-1.25-1.37-1.25c-.75 0-1.36.56-1.36 1.25zM275.34 115.56c.71.4 1.45.81 2.19 1.02 2.66.77 5.42.29 7.51-.65 2.67-1.42 4.87-2.37 6.5-2.52 1.37-.14 2.04.45 3.29.48.4.01.75-.08.9-.38.26-.52.1-1.84-1.78-2.89-1.89-1.05-4.72-1-7.23-.26-2.52.73-3.99 1.73-4.98 2.47-1 .73-2.18 1.87-2.46 1.63-.29-.24.57-.79 1.04-1.26.47-.48.68-.63.68-.63-2.76.18-5.72-.74-8.12-2.48 0 0-.78 3.63 2.46 5.47z"/><path fill="#E9B528" fill-rule="nonzero" d="M303.33 113.88c-1.84-.84-3.67-.74-5.92.1-2.26.85-3.36 1.53-3.36 1.53s.32 1.94-1.05 2.84c-1.36.89-2.72.36-3.09-.53-.37-.89-.47-1.37-.47-1.37s-2.15 1.21-5.08 1.74c-1.67.3-4.75.63-6.71-.16 0 0-1.78 1.73-3.09 2.79-1.31 1.05-2.73 1.94-2.73 1.94s.16.42.79.63c.63.21.84.32.42 1-.42.68-3.46 3.42-4.77 4.36-1.31.95-3.25 1.68-3.25 1.68s.63 1.16 1.52 1.53c.89.37 1.05.94.68 1.58-.37.63-3.51 4.1-4.82 5.3-1.31 1.21-2.31 1.37-2.88 1.53-.58.16-1.62.73-.47 2.05 1.15 1.31 3.87 1.79 6.6 1 2.72-.79 5.34-4 5.34-4s-.57 4.63-.57 6.78c0 2.16.26 4.63.63 5.89.36 1.26.73 1.89.73 1.89s1.83-1.05 3.09-4.26c1.26-3.2 1.57-4.99 1.57-5.93 0-.95.06-1.48.89-1 .84.47 1.47.84 1.79.89.31.05.52.05.52.05s-.52-2.31-.52-4.04c0-1.74.57-5.52 1.31-6.21.73-.68.87.26.94.69.15.89.91 1.97 1.99 2.31.36-2.55.91-4.65 3.04-6.89.39-.4.63-.94 1.94-.42 1.93.78 4.42 1.27 6.36.51 1.94-.75 3.35-2.76 2.91-2.98-.1-.05-2.98 1.42-5.23.69-2.26-.74-3.31-1.48-2-2.84 1.31-1.37 1.89-1.52 4.51-3.68s4.72-3.26 7.02-2.89c2.31.37 2.73 1.73 2.94 1.99.2.27 1.2 1.06 1.2-.83 0-1.9-.89-4.42-2.72-5.26z"/><path fill="#E9B528" fill-rule="nonzero" d="M278.72 151.15c-.46-.65-1.28-2.48-1.28-2.48s-.08.45-.55 1.75c-.48 1.3-1.83 3.16-1.83 3.16s1.07-.22 2.28-.6c1.2-.38 2.03-1.08 2.03-1.08s-.2-.1-.65-.75zM269.39 144.05s-.76 1.91-2.44 3.56c-1.68 1.66-2.93 1.46-2.93 1.46s.17-.05 1.43-.93c1.25-.88 2.51-3.44 2.51-3.44-1.38.83-4.55 1.62-6.22 1.28 0 0-.26.58-.66 1.61-.4 1.02-1.58 2.93-2.2 3.76-.63.83-.16.95-.16.95s.31.35 4.27 1.46c3.96 1.1 7.52.47 7.52.47s-.15-.35-.82-3.06c-.68-2.71-.3-7.12-.3-7.12zM220.35 116.25c0 .69.61 1.25 1.37 1.25.75 0 1.36-.56 1.36-1.25s-.61-1.25-1.36-1.25c-.76 0-1.37.56-1.37 1.25zM218.84 113.89c1.25-.03 1.92-.62 3.29-.48 1.63.15 3.83 1.1 6.5 2.52 2.09.94 4.85 1.41 7.5.65.75-.21 1.48-.62 2.19-1.02 3.25-1.84 2.47-5.47 2.47-5.47-2.4 1.73-5.36 2.66-8.13 2.47 0 0 .21.16.69.64.47.47 1.33 1.02 1.04 1.26-.28.23-1.46-.9-2.46-1.63-.99-.74-2.46-1.74-4.98-2.47-2.51-.74-5.34-.79-7.23.26-1.88 1.05-2.04 2.36-1.78 2.89.15.3.49.39.9.38z"/><path fill="#E9B528" fill-rule="nonzero" d="M254.15 140.37c-.58-.16-1.57-.32-2.88-1.52-1.31-1.21-4.46-4.68-4.82-5.31-.37-.64-.21-1.21.68-1.58.89-.37 1.52-1.53 1.52-1.53s-1.94-.73-3.25-1.68c-1.31-.94-4.35-3.68-4.77-4.36-.42-.68-.21-.79.42-1 .63-.21.78-.63.78-.63s-1.41-.89-2.72-1.94c-1.31-1.05-3.09-2.79-3.09-2.79-1.97.79-5.04.46-6.71.16-2.93-.53-5.08-1.74-5.08-1.74s-.11.48-.47 1.37c-.37.89-1.73 1.42-3.09.53-1.37-.9-1.05-2.84-1.05-2.84s-1.1-.68-3.36-1.52c-2.25-.85-4.08-.95-5.92-.11-1.83.84-2.72 3.36-2.72 5.26 0 1.89.99 1.1 1.2.84.21-.27.63-1.63 2.94-2 2.3-.37 4.4.74 7.02 2.89 2.62 2.16 3.2 2.31 4.51 3.68 1.31 1.37.26 2.1-2 2.84-2.25.73-5.13-.74-5.24-.69-.43.22.98 2.23 2.92 2.98 1.94.76 4.43.27 6.36-.51 1.31-.52 1.55.02 1.94.42 2.13 2.24 2.68 4.34 3.04 6.89 1.08-.33 1.84-1.42 1.99-2.31.07-.43.21-1.37.94-.69.73.69 1.31 4.47 1.31 6.21 0 1.73-.52 4.04-.52 4.04s.21 0 .52-.05c.32-.05.94-.42 1.78-.89.84-.48.89.05.89 1 0 .94.32 2.73 1.58 5.93 1.25 3.21 3.09 4.26 3.09 4.26s.37-.63.73-1.89c.37-1.26.63-3.73.63-5.89 0-2.15-.58-6.78-.58-6.78s2.62 3.21 5.35 4c2.72.79 5.45.31 6.6-1 1.15-1.31.11-1.89-.47-2.05z"/><path fill="#E9B528" fill-rule="nonzero" d="M236.23 148.67s-.83 1.83-1.28 2.48c-.45.65-.65.75-.65.75s.83.7 2.03 1.08c1.21.38 2.29.6 2.29.6s-1.36-1.86-1.84-3.16c-.47-1.3-.55-1.75-.55-1.75zM252.59 147.59c-.41-1.03-.66-1.61-.66-1.61-1.67.34-4.84-.45-6.22-1.28 0 0 1.26 2.56 2.51 3.44 1.26.88 1.43.93 1.43.93s-1.25.2-2.93-1.46c-1.68-1.65-2.44-3.56-2.44-3.56s.38 4.41-.3 7.12c-.68 2.71-.83 3.06-.83 3.06s3.57.63 7.53-.47c3.96-1.11 4.26-1.46 4.26-1.46s.48-.12-.15-.95-1.8-2.74-2.2-3.76zM238.69 246.91c.83.28 2.39-.33 3.17-1.28.78-.95 1.06-2.4 1.62-3.23.56-.84.96-1.46.96-1.46s-.12 1.38-.86 3.22c-.7 1.76-.83 4.17-.66 5.2.34 2.06 1.67 2.4 2.45 2.12.6-.21 1.49-1.13 2.32-2.5.26-.43.44-1.03.69-1.51.53-1.01 1.01-2.65 1.24-2.6.52.1.19 1.26-.01 2.04-.39 1.56-1.17 3.85-1.23 5.24-.05 1.39.12 3.9 1.51 4.01 1.39.11 2.12-1.11 2.9-3.96.78-2.84.94-3.73 1.28-3.73.33 0 .33 1.95.33 2.79 0 .28.01 1.08.13 1.87.21 1.52.66 3.35 1.1 3.76.67.61 1.23.5 1.23.5s.55.11 1.22-.5c.67-.62 1.23-4.8 1.23-5.63 0-.84 0-2.79.33-2.79.34 0 .5.89 1.28 3.73.78 2.85 1.51 4.07 2.9 3.96 1.4-.11 1.57-2.62 1.51-4.01-.06-1.39-.84-3.68-1.23-5.24s.17-1.45 1.23.56c.33.62.67 1.39 1.01 1.93.74 1.18 1.46 1.89 2 2.08.78.28 2.12-.06 2.45-2.12.34-2.06-1.23-7.97-1.23-7.97s.12.17.67 1c.56.84.84 2.29 1.62 3.24.78.95 2.34 1.56 3.18 1.28.83-.28.95-1.84.33-4.63-.61-2.79-3.12-4.35-4.9-6.58-1.64-2.04-2.91-5.65-3.1-6.22-2.25 1.11-4.21 2.38-5.99 4.23-3.69 3.85-4.49 4.81-4.49 4.81s-.81-.96-4.49-4.81c-1.79-1.87-3.77-3.13-6.04-4.25-.21.48-1.74 3.92-3.4 6-.82 1.03-1.95 1.81-2.76 2.79-.94 1.16-1.51 2.53-1.84 4.03-.61 2.79-.5 4.35.34 4.63z"/><path fill="#E9B528" fill-rule="nonzero" d="M238.59 256.35c1.08-.95 1.63-1.47 1.63-1.47s.79-.65.59.59c-.2 1.24-.62 3.79-.36 4.91.26 1.11.39 2.06 1.77 1.24 1.37-.82 1.7-1.31 2.35-2 .66-.68 1.34-.98 1.18.1-.17 1.08-.66 2.72-.43 4.91.23 2.19 1.31 2.52 2.72.65 1.4-1.86 2.25-3.56 2.68-4.48.42-.91 1.28-1.7 1.28 0 0 3.66.83 8.98 4.87 10.4 4.03-1.42 4.87-6.74 4.87-10.4 0-1.7.85-.91 1.27 0 .43.92 1.28 2.62 2.69 4.48 1.4 1.87 2.48 1.54 2.71-.65.23-2.19-.26-3.83-.43-4.91-.16-1.08.53-.78 1.18-.1.66.69.98 1.18 2.36 2 1.37.82 1.5-.13 1.76-1.24.26-1.12-.16-3.67-.36-4.91-.19-1.24.59-.59.59-.59s.56.52 1.64 1.47c1.07.95 2.56 1.01 2.56 1.01s.69-3.84-.91-6.13c-1.6-2.3-2.19-3.04-2.19-3.04s-.9-.06-1.6-.32c-.69-.27-1.36-.77-1.36-.77v2.13s1.96 1.86 2.42 2.42c.45.55 1.37 1.5.03.58-1.34-.91-2.45-1.83-2.45-1.83s-.27 1.93-.82 2.42c-.56.49-1.34.56-1.67.43l-.32-.14-.1.76s1.21 2.26 1.37 3.17c.16.92-.1.82-.65-.36-.56-1.18-1.64-2.68-2.13-3.5-.49-.82-1.21-1.37-1.14-.33.06 1.05-.36 2.95-.72 3.63-.36.69-.59.92-.59.92s.75 2.65.85 3.14c.1.49.03 1.05-.39.42-.43-.62-1.64-3.23-1.64-3.23s-1.6-.07-2.06-.53c-.46-.46-1.18-2.22-1.18-2.22s-.65 2.25-1.2 2.97c-.54.73-1.8 1.45-1.8 1.45s-.09 3.91-.18 4.6c-.09.7-.12 1-.41 1-.3 0-.33-.3-.42-1-.09-.69-.18-4.6-.18-4.6s-1.26-.72-1.8-1.45c-.54-.72-1.2-2.97-1.2-2.97s-.72 1.76-1.18 2.22c-.46.46-2.06.53-2.06.53s-1.21 2.61-1.63 3.23c-.43.63-.49.07-.4-.42.1-.49.85-3.14.85-3.14s-.22-.23-.58-.92c-.36-.68-.79-2.58-.72-3.63.06-1.04-.66-.49-1.15.33-.49.82-1.57 2.32-2.12 3.5-.56 1.18-.82 1.28-.66.36.17-.91 1.38-3.17 1.38-3.17l-.1-.76-.33.14c-.33.13-1.11.06-1.67-.43-.55-.49-.81-2.42-.81-2.42s-1.12.92-2.46 1.83c-1.34.92-.42-.03.04-.58.45-.56 2.42-2.42 2.42-2.42v-2.13s-.68.5-1.37.77c-.69.26-1.6.32-1.6.32s-.59.74-2.19 3.04c-1.6 2.29-.9 6.13-.9 6.13s1.48-.06 2.56-1.01z"/><path fill="#E9B528" fill-rule="nonzero" d="M234.26 269.42c.96-.61 1.8-1.29 3.99-2.74 2.18-1.45 2.98-3.06 2.98-3.06h-.77c-.41 0-.77-.59-.8-1.17-.03-.58 0-1.77.16-3.15.16-1.39-.22-2.52-.22-2.52s-.94.87-2.35 1.61c-1.41.74-1.99.39-1.99.39l-.36-1.42s-.61 1.29-1.48 2.8c-.86 1.52-3.21 3.2-4.88 4.45-1.67 1.26-3.51 2.58-4.89 3.07-1.38.48-.57 1.13-.57 1.13s1.38 1.38 4.94 2.03c3.57.64 5.28-.81 6.24-1.42z"/><path fill="#E9B528" fill-rule="nonzero" d="M246.73 268.03c-1.27-.13-2.03-.61-2.28-2-.16-.9.06-4.35.06-4.35s-.41.35-.9.94c-.48.58-1.57.71-1.57.71s-.16.48-.64 1.25c-.49.78-1.1 1.71-2.32 2.48-1.22.78-2.63 1.68-3.57 2.46-.93.77-2.02 1.67-3.24 2.35-1.22.68-2.32 1.77-2.74 3.58-.41 1.8-.09 2.38 1.32 2.29 1.42-.1 1.58.03 3.86-.55 2.28-.58 5.53-3.13 7.91-4.64 2.38-1.52 4.11-4.52 4.11-4.52z"/><path fill="#E9B528" fill-rule="nonzero" d="M253.06 270.13s-.96-1.23-1.31-2.61c-.36-1.39-1.03-4.13-1.03-4.13s-.32.87-1.09 2.51c-.78 1.65-2.09 2.04-2.09 2.04s-.07.7-1.16 2.09c-1.09 1.39-2.7 2.68-4.34 3.65-1.64.96-3.76 2.28-4.92 3.93-1.16 1.64-1.25 3.35-.71 4.09.55.74 1.32-.1 2.41-.64 1.1-.55 4.22-1.03 8.52-3.36 4.31-2.32 5.72-7.57 5.72-7.57z"/><path fill="#E9B528" fill-rule="nonzero" d="M254.93 279.77c1.19-1.78 1.38-6.09 1.38-6.09s-.42-.29-1-.78c-.57-.48-1.7-2.19-1.7-2.19s-.71 1.48-1.48 2.87c-.77 1.39-1.16 1.87-2.76 3.35-1.61 1.48-3.79 2.94-4.73 4.51-.93 1.58-.42 4.74.2 5.81.61 1.06 1.47.71 2.37-.16.9-.87 1.19-1.1 2.77-2.45 1.57-1.36 3.76-3.1 4.95-4.87zM290.08 267.68c-1.38-.49-3.21-1.81-4.88-3.07-1.67-1.25-4.02-2.93-4.89-4.45-.87-1.51-1.48-2.8-1.48-2.8l-.35 1.42s-.58.35-1.99-.39c-1.42-.74-2.35-1.61-2.35-1.61s-.39 1.13-.22 2.52c.15 1.38.19 2.57.15 3.15-.03.58-.38 1.17-.8 1.17h-.77s.8 1.61 2.99 3.06c2.18 1.45 3.02 2.13 3.98 2.74.97.61 2.67 2.06 6.24 1.42 3.57-.65 4.95-2.03 4.95-2.03s.81-.65-.58-1.13z"/><path fill="#E9B528" fill-rule="nonzero" d="M281.47 271.87c-1.22-.68-2.32-1.58-3.25-2.35-.93-.78-2.35-1.68-3.57-2.46-1.22-.77-1.83-1.7-2.31-2.48-.48-.77-.64-1.25-.64-1.25s-1.1-.13-1.58-.71-.9-.94-.9-.94.23 3.45.07 4.35c-.25 1.39-1.01 1.87-2.29 2 0 0 1.74 3 4.12 4.52 2.38 1.51 5.62 4.06 7.9 4.64 2.29.58 2.45.45 3.86.55 1.42.09 1.74-.49 1.32-2.29-.42-1.81-1.51-2.9-2.73-3.58z"/><path fill="#E9B528" fill-rule="nonzero" d="M271.7 273.68c-1.64-.97-3.25-2.26-4.34-3.65-1.09-1.38-1.16-2.09-1.16-2.09s-1.32-.39-2.09-2.04c-.77-1.64-1.09-2.51-1.09-2.51s-.68 2.74-1.03 4.13c-.35 1.38-1.32 2.61-1.32 2.61s1.42 5.25 5.72 7.57c4.31 2.33 7.43 2.81 8.52 3.36 1.09.54 1.86 1.38 2.41.64.55-.74.45-2.45-.7-4.09-1.16-1.65-3.28-2.97-4.92-3.93z"/><path fill="#E9B528" fill-rule="nonzero" d="M264.37 276.93c-1.61-1.48-2-1.97-2.77-3.35-.77-1.39-1.48-2.87-1.48-2.87s-1.12 1.71-1.7 2.19c-.58.48-1 .78-1 .78s.2 4.31 1.39 6.09c1.19 1.77 3.37 3.51 4.95 4.87 1.57 1.35 1.86 1.58 2.76 2.45.9.86 1.77 1.22 2.38.16.61-1.07 1.12-4.23.19-5.81-.93-1.58-3.11-3.02-4.72-4.51zM258.26 281.93c-1.03-1.21-1.38-1.81-1.38-1.81s-.34.6-1.37 1.81c-1.04 1.2-3.45 3.1-3.45 3.1s.21 3.19 1.38 4.91c.98 1.46 1.92 2.79 3.44 3.8 1.53-1.01 2.47-2.34 3.45-3.8 1.17-1.72 1.38-4.91 1.38-4.91s-2.41-1.9-3.45-3.1z"/><path fill="#005D95" fill-rule="nonzero" d="M344.66 242.72c-.97-.23-1.37-.59-1.37-.59s-.41-.05-.74.54c-.31.6-1.55 1.37-1.55 1.37s-1.74.46-1.96 1.65c-.23 1.19.59 1.6 1.41 1.46.83-.13 2.84-.55 3.7-1.6.87-1.05 1.01-1.64 1.19-2.06.18-.41.28-.54-.68-.77zM347.35 233.26c-.62-2.64-2.33-5.91-5.62-7.55 0 0-1.23 4.35-1.6 5.72-.36 1.37-.36 1.33.69 1.6 1.05.27 4.43 1 5.12 1.19.68.18 1.82.77 1.41-.96zM331.68 230.79c.77.14.68-.18.96-1.23.27-1.05 1.64-6.27 1.64-6.27s-3.47-.13-6.49 1.33-4.34 4.16-4.34 4.16.78.32 2.83.78c2.06.45 4.62 1.09 5.4 1.23zM323.63 237.97c-1.23-.23-1.69-.37-1.69-.37s.78 2.97 2.06 4.62c1.28 1.64 2.69 2.47 5.35 2.51 2.65.05 4.66-1.42 4.98-2.56.32-1.14.87-2.01.87-2.01s-4.8-.64-6.77-1.1c-1.96-.45-3.56-.87-4.8-1.09z"/><path fill="#DE6F10" fill-rule="nonzero" d="M285.28 179.9c-1.22-7.42 3.06-13.97 3.06-13.97l-8.33-9.74c-6.42 3.61-15.36 3.12-23.12-.45-7.77 3.57-16.7 4.06-23.12.45l-8.33 9.74s4.28 6.55 3.06 13.97c-1.23 7.43-3.86 19.18-3.2 23.98.66 4.79 4.04 10.34 7.52 13.25 3.48 2.92 8.65 5.36 12.31 6.68 3.67 1.32 7.25 3.85 8.94 5.17a35.12 35.12 0 012.82 2.44s1.13-1.12 2.82-2.44c1.69-1.32 5.26-3.85 8.93-5.17 3.67-1.32 8.84-3.76 12.31-6.68 3.48-2.91 6.87-8.46 7.53-13.25.65-4.8-1.98-16.55-3.2-23.98zM268.27 137.9c-1.22 1.4-4.2 2.74-4.2 2.74l-.07.25s1.19-.22 2.38-.89 2.93-2.19 3.29-2.8c.37-.61-.06-1.04-.06-1.04s-.12.34-1.34 1.74zM273.42 140.73c0 .83-.31 6.37-.31 6.37-.01.26-.1 1.94-.53 2.17.22.04.65.11.77-.76.16-1.04 1.2-8.11 1.2-8.11l-.61-.28s-.52-.21-.52.61zM282.74 126.67c-.53.15-1.81 1.09-2.49 1.66-.68.56-1.13.56-1.77.87-.64.3-.42-1.1-.04-2.23s1.66-2.49 2.64-3.58c.98-1.1-.04-.76-.49-.31-.45.46-1.51 1.59-2.75 3.59-1.25 2-1.93 6.52-1.93 6.52s.76-.45 1.51-.98c.76-.52 1.59-.98 3.02-2.03 1.43-1.06 2.26-1.85 3.02-2.68.75-.83-.19-.98-.72-.83zM245.4 137.9c-1.22-1.4-1.34-1.74-1.34-1.74s-.43.43-.06 1.04c.36.61 2.1 2.13 3.29 2.8 1.19.67 2.37.89 2.37.89l-.06-.25s-2.98-1.34-4.2-2.74zM240.55 147.1s-.3-5.54-.3-6.37c0-.82-.52-.61-.52-.61l-.61.28s1.04 7.07 1.19 8.11c.13.87.56.8.78.76-.43-.23-.52-1.91-.54-2.17zM233.08 123.08c-.46-.45-1.47-.79-.49.31.98 1.09 2.26 2.45 2.64 3.58.37 1.13.6 2.53-.04 2.23-.64-.31-1.09-.31-1.77-.87-.68-.57-1.96-1.51-2.49-1.66-.53-.15-1.47 0-.72.83s1.59 1.62 3.02 2.68c1.43 1.05 2.26 1.51 3.02 2.03.75.53 1.5.99 1.5.99s-.68-4.53-1.92-6.53c-1.24-2-2.3-3.13-2.75-3.59zM256.77 251.81c.14.03.16-.32.19-.96.03-.63.11-2.17.26-3.08.16-.9-.23-.85-.47-.79-.24.05-.37.74-.37 1.14 0 .4.1 2.68.1 3.16s.16.5.29.53zM272.92 243.62c.63 1.29.77 1.12.5.05-.28-1.07-.66-2.03-1.27-3.02-.6-.99-2.14-2.4-2.14-2.4s.41.91.99 1.71c.57.8 1.29 2.36 1.92 3.66zM266.82 244.72c.25.85 1.54 3.21 1.68 3.13.13-.08-.53-2.12-.97-3.52-.44-1.4-1.13-2.47-1.26-2.42-.14.06.11.88.11.88s.19 1.07.44 1.93zM262 248.59c.28.61.61 1.35.75 1.24.14-.11-.33-1.35-.41-1.71-.09-.35-.11-1.15-.53-1.98-.41-.82-.58-.43-.58-.11 0 .33.5 1.93.5 1.93s0 .03.27.63zM240.79 243.62c.63-1.3 1.35-2.86 1.93-3.66.57-.8.99-1.71.99-1.71s-1.54 1.41-2.15 2.4c-.6.99-.99 1.95-1.26 3.02-.28 1.07-.14 1.24.49-.05zM246.9 244.72c.24-.86.38-1.42.38-1.42s.25-.83.11-.88c-.14-.06-.77.51-1.21 1.91-.44 1.4-1.1 3.44-.96 3.52.14.08 1.43-2.28 1.68-3.13zM251.71 248.59c.27-.6.27-.63.27-.63s.5-1.59.5-1.93c0-.32-.17-.71-.58.11-.41.83-.44 1.63-.52 1.98-.08.36-.55 1.6-.42 1.71.14.11.47-.63.75-1.24zM236.77 263.26l-.65-.39s-.38.52-.93 1.1c-.54.58-1.16.81-1.57 1.35-.42.55-1.06 1.23-2.06 1.74-1 .52-1.38.68-1.19.84.19.17.87-.22.87-.22s.29-.04 1.48-.74c1.19-.71 1.48-1.1 2.25-1.78.77-.67 1.8-1.9 1.8-1.9zM241.97 269.42c.46-.48.94-.81.68-1.07-.26-.25-.58-.22-1 .13-.41.36-1.6 1.49-2.15 1.97-.55.48-1 .77-1.54 1.19-.55.42-1.74 1.07-2.32 1.39-.58.32-.03.36-.03.36s.45-.23.93-.39c.48-.16 1.87-.78 1.87-.78s.54-.25 1.28-.77 1.83-1.55 2.28-2.03zM247.99 273.58c.38-.77-.04-.55-.68-.29-.64.26-2.09 1.84-2.93 2.42-.83.57-1.54.8-2.24 1.16-.71.35-.71.54-.68.71.03.16.32.16.61.03s1.29-.71 1.29-.71.41-.13.8-.16c.39-.03.93-.46 1.8-1.19.87-.75 1.64-1.2 2.03-1.97zM250.78 279.09c-1.06.65-2.89 2.1-3.37 3.06-.49.97-.81 1.65-.65 1.81.16.16.68-.16.9-.55.23-.39.71-.97.71-.97s1.83-1.8 2.51-2.22c.67-.42 1.77-1.61 2.02-2.32.26-.71.07-1.1.07-1.1s-1.13 1.65-2.19 2.29zM282.18 267.06c-1-.51-1.64-1.19-2.06-1.74-.42-.54-1.03-.77-1.58-1.35-.54-.58-.93-1.1-.93-1.1l-.64.39s1.03 1.23 1.8 1.9c.77.68 1.06 1.07 2.25 1.78 1.19.7 1.47.74 1.47.74s.68.39.87.22c.2-.16-.19-.32-1.18-.84zM278.09 273.03c-.58-.32-1.77-.97-2.31-1.39-.55-.42-1-.71-1.54-1.19-.55-.48-1.74-1.61-2.16-1.97-.42-.35-.74-.38-.99-.13-.26.26.22.59.67 1.07.45.48 1.54 1.51 2.28 2.03.74.52 1.29.77 1.29.77s1.38.62 1.86.78c.48.16.93.39.93.39s.55-.04-.03-.36zM271.6 276.87c-.71-.36-1.41-.59-2.25-1.16-.84-.58-2.28-2.16-2.93-2.42-.64-.26-1.05-.48-.67.29.39.77 1.16 1.22 2.02 1.97.87.73 1.42 1.16 1.81 1.19.38.03.8.16.8.16s.99.58 1.28.71c.29.13.58.13.61-.03.04-.17.04-.36-.67-.71zM262.95 279.09c-1.06-.64-2.18-2.29-2.18-2.29s-.2.39.06 1.1c.26.71 1.35 1.9 2.03 2.32.67.42 2.51 2.22 2.51 2.22s.48.58.7.97c.23.39.74.71.9.55.16-.16-.16-.84-.64-1.81-.48-.96-2.31-2.41-3.38-3.06zM256.36 285.83c.1.74.03 2.61.48 2.61.45 0 .39-1.87.49-2.61.09-.74.13-2.52.13-2.52h-1.23s.03 1.78.13 2.52z"/><path fill="#005D95" fill-rule="nonzero" d="M284.47 180.79c-1.2-8.02 2.41-14.48 2.41-14.48l-7.52-8.38c-6.36 3.27-14.08 2.43-22.5-.49-8.42 2.92-16.14 3.76-22.5.49l-7.52 8.38s3.62 6.46 2.41 14.48c-1.2 8.02-3.05 17.1-2.69 22.43.02.36.06.74.11 1.11h6.85s.4-.46 1.16-.79c.76-.33.98-.54.98-.54s.15-1.39.98-1.68c.83-.29 1.2-.29 1.52-.29.33 0 .58-.07.98-.47.4-.4 1.49-1.39 1.96-2.77.47-1.38.76-1.93.76-2.84 0-.91.33-2.36.33-2.36s-.18-.44-.87-.18c-.69.25-.8-.44-.87-1.13-.07-.7-.04-2.11.36-2.77.4-.65.55-.87.55-.87l-.29-1.09s-4.36.87-5.12-2.52c-.76-3.38-.91-5.02-1.02-5.38-.11-.37-.22-.55-.79-.51-.59.03-1.82-.36-2.69-2.11-.87-1.75-.94-2.48-.69-3.17s.73-.43.87-.22c.15.22 1.31 1.9 1.78 1.42.47-.47.22-.47-.44-1.78-.65-1.31-.43-1.75-.36-2.4.07-.66-.22-1.53-.22-1.9 0-.36.4-.65.8-.47.4.18.76.47.95.69.18.22.25.55.61.33.37-.22.15-1.42.15-1.82 0-.4.47-.69 1.05-.36.58.32.87.94.87 1.38 0 .44.04.84.25.84.22 0 .48-.66.51-1.1.04-.43.29-1.09.69-.54.4.54.55 1.35.4 2.18-.14.84.15.4-.14 1.86-.29 1.46-.44 2.11-.4 3.2.03 1.09.07 1.71.61 3.06.55 1.35.98 2.91 2 2.95 1.02.03 1.31.03 1.31.03s1.12-2.18 1.99-2.69c.87-.51 2.11-.58 2.98-.69.87-.11 1.23-.37 1.23-.58 0-.22-.29-.29-1.34-.44-1.05-.15-1.92-.4-1.96-1.2-.04-.8.18-1.49-.51-1.53-.69-.04-2.39-.59-3.01-1.71-.62-1.13-.47-1.39-.4-2 .07-.62.87-1.86 1.38-.7.51 1.17.84 1.31 1.27 1.57.44.26 1.01.33.73-.47-.3-.8-.48-1.31-.4-1.89.07-.59.47-.84.94-.95.47-.11 1.89-.55 2.61-.69.73-.15.76-.22.76-.22s.08-.51 1.02-.8c.94-.29 1.56-.33 2.25-.33s1.2.11 2.1-.33c.91-.43 1.64-.5 2.22-.47.58.04 1.01.26 1.45.55.43.29.29.69.29 1.09 0 .4.07.62.69.62.62 0 1.16 0 1.74.22.58.22 1.38.54.87 1.16-.51.62-.54 1.31-.87 1.27-.33-.03-.29.33-.44.55-.14.22-.25.4.11.62.37.22.4.44.91.91.51.47 1.27.98.51 1.75-.76.76-2.1 1.38-2.1 1.38s-.77.36.1.87 1.27 1.57 1.6 1.75c.33.18.65.47.87.58.22.11.18.84.18.84s-.47.33-1.12.58c-.66.26-1.35.55-1.96.55-.62 0-.95 0-.69.58.25.58.69 1.2.8 1.53.11.32.25.91.25.91s1.02.21 1.92.21c.91 0 1.31.04 3.31-.18 1.99-.21 2.57-.29 4.49-.07 1.93.22 2.22.15 2.73.33.5.18 1.01.44 1.01.44s2.72-.04 4.21-.37c1.49-.33 1.85-1.27 1.64-1.78-.22-.51-.19-1.28-2.8-1.64-2.61-.37-3.66-.22-5.73-.62-2.07-.4-5.3-1.45-5.88-4.04-.58-2.58 1.52-3.67 2.58-4.18 1.05-.52 3.33-1.31 4.39-1.75 1.05-.44 2.97-.87 5-.58 2.03.29 3.19.83 3.99.36.8-.47 1.46-.11 1.31.62-.14.73-.94 2.22-3.23 2.91s-5.04.77-6.53.37c-1.49-.41-2.61-.99-3.52-.66-.91.33-1.92 1.46-.95 2.8.99 1.35 5.99 1.75 7.34 1.89 1.34.15 6.31-.21 7.72 2.26 1.42 2.48.29 5.24-1.37 5.86-1.67.62-3.09 1.02-4.36 1.2l-1.27.18s.58 1.31.58 1.86-.07 1.57.55 1.96c.61.41 1.48.7 2.54.59 1.05-.11 2.32.62 2.39 1.56.07.95.37 2.26.47 4.15.11 1.89 0 3.46 0 3.46s-.07.73-.32 1.42c-.26.69-1.56 3.37-1.56 3.37h7.3c.05-.37.09-.75.12-1.11.35-5.33-1.49-14.41-2.7-22.43z"/><path fill="#618D33" fill-rule="nonzero" d="M227.54 207.89c1.43 4.09 4.39 8.23 8.88 10.94 6.25 3.76 8.94 3.27 14.83 7.1 5.9 3.83 5.54 4.47 5.61 4.47.07 0-.28-.64 5.61-4.47 5.89-3.83 8.59-3.34 14.83-7.1 4.5-2.71 7.45-6.85 8.88-10.94h-58.64z"/><path fill="#E9B528" fill-rule="nonzero" d="M232.65 176.28c.67.7 1.16.92 2.19.81 1.02-.11 1.27.64 1.44 1.45.18.81.18 2.72.92 4.48.74 1.77 3.21 1.87 3.21 1.87.07-.85.37-1.99.75-2.93.06-.16.38-.95-.5-.95s-.85-.35-1.38-1.2c-.53-.85-1.55-3.11-1.8-4.56-.24-1.44.21-3.6.46-4.37.25-.78.29-1.31 0-1.45-.28-.14-.84 0-.84 0s.21.67-.04.78c-.25.1-.46-.36-.63-.85-.18-.49-.39-.42-.75-.39-.35.04-.35.35-.1.71.24.35.1.99.1.99s-.77-.57-1.09-.71c-.32-.14-1.06.14-1.13.56-.07.43.28 1.52.95 2.09.67.56.67 1.73.46 2.26-.21.53-1.2.45-1.41.21a.6.6 0 00-.92 0c-.28.32-.56.49.11 1.2zM232.26 174.41s-.39-.32-.53-.49c-.14-.18-.42-.57-.42-.57s-.07.18-.07.6.45.88.45.88l.57-.42zM233.74 169.5c.32-.14.57-.21.32-.56-.25-.36-.46-.75-.71-.82-.24-.07-.46-.03-.46-.03s.29.64.36 1.02c.07.39.17.53.49.39zM235.58 168.02c-.04.32.03.46.31.32.29-.15.39-.53.25-.82-.14-.28-.46-.49-.46-.49l-.21-.14s.14.81.11 1.13zM238.23 168.44c.03-.35-.11-.74-.11-.74s0 .42-.18.67c-.17.25-.14.18.04.39.17.21.21.04.25-.32zM242.37 186.39c.52 1.2 1.84-.69 3.04-2.21s1.16-.36 1 .88c-.16 1.24.32 2.57.8 3.41.48.84.88.36 1.08-.24.2-.6.36-1.84.76-2.45.4-.6.8-.08.84.44.04.52.68 1.69 1.27 2.37.6.68.88-.24 1.08-1.08.2-.84.44-2.13.6-2.65.16-.52.72-.08.72-.08s.4.4 1.2 1.16c.8.77.88-.44.96-1.04.08-.6-.12-1.92.12-2.12.24-.2.92.28 1.96.8s1-.48.88-1.04-.72-1.85-1.56-2.57c-.84-.72-.96-1.56-.68-1.92.28-.36 1.28-.04 1.92-.12.64-.08.96-.16 1.44-.24.47-.08.47-.56.47-.56s-.35-.6-1.03-1.21c-.68-.6-1.08-1.08-1.92-1.28-.84-.2-2 0-2 0l-.12-.24c-.12-.24-.36-.24-.52 0-.16.24-.56.56-.88.84-.32.28-.52.44-.72.32-.2-.12.16-.4.16-.4s.44-.32.84-1.12c.4-.8.52-1.56.2-1.92-.32-.37-1.2 0-1.68 0s-.76.08-.8-.16c-.04-.24.48-.12 1.08-.2.6-.09.96-.81 1.16-1.41.2-.6.36-.52.72-.16s.68.28.76.04c.08-.24.4-.84.8-1.44s.64-1.44.2-2-1.52-.49-1.96-.12c-.44.36-.72.72-.84 1.6-.12.88-.36.4-.36.12s-.36-.72-.2-1.08c.16-.36 0-.77 0-.77s-.08-.76-.92-.92c-.83-.16-1.79.04-2.63.24-.84.2-.68.93-.68.93s-.64.04-1.32.12c-.68.08-1.48.36-2.12.52-.64.16-.88.24-.88.56 0 .32.12.84.12.84s.52 0 .8.16.12.44-.2.56c-.32.12-.44.16-.44.56s.16.49.48.49c.32 0 1 0 1.8.35.8.36 1 1.09.92 1.49-.08.4-1.2.92-1.76.92s-.72.12-.72.48.68.32.68.32.68.04 2 .2c1.32.16 1.52.44 2.12.96.6.52.16.64-.12.8-.28.16-.72.53-1.16.69-.44.16-.72.48-1.12.56-.4.08-1.4.04-3.24.76-1.84.72-2.47 3.13-2.47 3.13s.24-.09 1.07-.53c.84-.44 1.88-.92 2.84-1.52s.96.28.48 1.12c-.48.84.44.68.72.44.28-.24.64-.48 1.56-.96s.6.28.6.28-.28.56-.36 1.89c-.08 1.32 1.32.08 1.96-.77.63-.84.91 0 .44.97-.48.96-1.4 1.72-1.92 1.72s-.92-.56-.96-.88c-.04-.32.16-1.28-.16-1.52s-1.24.04-1.92.44c-.68.4-.84.08-1-.28-.16-.36.24-.49.08-.73-.16-.24-.52 0-.8.13-.28.11-.92.48-2.16 1.12-1.23.64-1.15 1-1.15 1.92 0 .92.23 1.08.75 2.29z"/><path fill="#E9B528" fill-rule="nonzero" d="M254.36 166.32c.26-.16.73-.35.73-.35s.59-.14 1.14-.21c.54-.07.44-.38.32-.64-.11-.26-.32-.35-1.03-.35s-1.16.35-1.56.51c-.4.17-.87.29-.87.29s.09.12.35.49c.26.38.66.43.92.26z"/><path fill="none" d="M257.24 169.18c.28 0 .59-.17.59-.17s.52-.26.99-.42c.47-.17.66-.24.94-.8.29-.57-.3-.57-1.13-.78-.82-.22-1.22.07-1.32.37-.09.31-.07.66-.4 1.26-.33.59.06.54.35.54"/><path fill="#E9B528" fill-rule="nonzero" d="M256.98 169.91c-.8 0-1.7 1.2-2.03 1.42-.33.21-.14.42-.14.42s.24.49.33.97c.09.47.12 1.27.12 1.27s.12.05.59.05.75-.24 1.2-.57c.45-.33.8-.45 1.44-.56.64-.12.94-.24 1.65-.62.71-.37-.38-1.04-1.13-1.65-.76-.61-1.23-.73-2.03-.73zM246.31 172.68c.63-.07.92-.39.92-.74 0-.36-.32-.74-1.13-.67-1.99.17-3.92-.54-4.27-2.51 0 0-.68 1.23.56 2.61 1.24 1.38 3.28 1.38 3.92 1.31zM239.54 203.98c.1.18.22.29.35.35h3.04c.52-.15.52-.62.55-.95.03-.4.33-1.51.75-3.54.42-2.02 1.15-3.47 1.45-4.28.3-.82-.3-1.09-.51-1.6-.21-.52-.55-1.42-.64-1.88-.09-.45-.81-.39-1.2-.36-.39.03-.45.67-.51 1.27s-.33 2.38-.63 3.92c-.31 1.54-2.05 3.6-2.53 4.05-.49.45-.88.64-1.21.64-.33 0-1.05 0-1.41.21-.36.21-.72.78-.76 1.23-.03.46.7.7.7.7s.57-.33.78-.61c.21-.27.69-.33 1.17-.42.48-.09.54.09.36.33-.18.25-.12.31.25.94zM234.87 203.83c-.23.08-.4.31-.5.5h1.99c-.03-.16-.08-.35-.2-.5-.24-.3-.87-.15-1.29 0z"/><path fill="#E9B528" fill-rule="nonzero" d="M237.58 203.77c-.24.13-.54.35-.69.56h2.15c.07-.2.1-.47-.17-.68-.48-.39-.96-.06-1.29.12zM256.17 202.88c-.23 0-.44.21-.78.44-.33.24-.44.6-.49.89-.01.05 0 .09.01.12h.91c.04-.03.06-.07.06-.12 0-.26.11-.5.5-.83.38-.34.02-.5-.21-.5zM257.95 203.87c0-.29-.1-.55-.31-.52-.2.03-.54.39-.83.6-.15.11-.27.26-.36.38h1.35c.07-.15.15-.33.15-.46z"/><path fill="#E9B528" fill-rule="nonzero" d="M266.23 193.98c.65-.46.54-.59.57-1.09.02-.49.02-.64-.23-.83-.26-.18-1.22-.59-2.12-.59-.91 0-2.62.2-3.26.65-.65.44-.96 2.02-.96 2.85 0 .83.13.96.36.96.23 0 .62-.6.62-.6s.86 1.12 1.37 1.9c.52.78.29 1.09.06 1.68-.24.6-1.09 2.18-1.76 2.52-.68.34-1.19.02-2-.1-.8-.13-1.24.1-1.7.57-.47.46-.03.83.26.83.28 0 .67-.03.98.36.21.27.07.89-.04 1.24h3.96c.68-.3 1.15-1.23 1.33-1.73.21-.57 1.06-1.33 1.47-1.71.42-.39.47-.65.47-1.51s-.23-1.35-.54-1.95c-.31-.59-.55-1.45-.44-1.94.1-.49.95-1.04 1.6-1.51z"/><path fill="#E9B528" fill-rule="nonzero" d="M259.71 184.09c.39.64.19.77-.38.89-.56.12-1.18.22-2.07.15-.89-.08-.87.05-.89.49-.02.45-.1 1.39-.62 2.08-.52.69-1.16.42-1.56.15-.39-.27-.61-.2-.76.29-.15.5-.42.85-.84 1.58-.42.75-.69.77-.99.7-.3-.08-.57-.52-.87-.55-.29-.02-.76-.61-1.21-1.33-.44-.72-.66.07-.96.69-.3.62-.59 1.07-1.16.99-.57-.07-1.21-1.14-1.53-1.78-.32-.64-.52-1.26-1.02-1.24-.49.03-1.31 1.07-1.85 1.34s-.69.17-.94-.17c-.25-.35-.57.12-.89.94-.32.81.03 1.5.47 1.72.45.23 1.34-.42 1.93-.81.59-.39.86-.3 1.48-.3s.57 1.02.84 2.5 1.14 1.68 1.14 1.68.29.25.96-.89c.67-1.14.74-2.25 1.39-2.25.64 0 .69.15 1.33 1.04.64.89 1.19 1.56 1.56.89.37-.67.69-1.66 1.11-2 .42-.35.81-.45.37.19-.45.65-.64 1.34.27 1.07.92-.27 4.4-1.68 5.81-1.95 0 0 1.65-.28 3.56-.37 1.9-.11 2.37-.23 3.11-.23.74 0 .77-.07.82-.57.04-.49-.35-.39-1.73-.39-1.39 0-2.35.17-3.32.32-.96.15-1.4.12-1.23-.12.17-.25.44-.43 1.56-.6 1.11-.17 3.38-.29 4.57-.32 1.18-.02.81.35.71 1.14-.1.79.1 1.95.18 2.69.07.74.09.97.74 2 .64 1.04 2.86 1.68 3.51 2.03.64.35.54 0 .52-.62-.03-.61.49-.59 1.06-.27.57.32 1.51.59 2.17.77.67.17.77.29.77.64 0 .35.07 1.11.15 1.83.07.72.05.94-.25 1.38-.3.45-1.56 1.73-1.56 1.73s-.56 0-1.78.3c-1.21.29-1.58.86-1.7 1.36-.12.49.22.64.27.84.03.11.02.37 0 .59h.28c.11-.17.25-.4.44-.64.42-.55 1.48-.67 2.17-.35.46.21.46.69.41.99h2.77c.38-.72 1.26-2.44 1.49-2.97.3-.66.47-1.08.5-2 .02-.91.12-4.44-.05-4.64-.18-.2.05-.79 0-1.78s0-1.73-1.83-1.9c-1.83-.18-2.4-.94-3.02-1.56-.62-.62-.47-2.05-.96-3.78s-1.7-2-3.85-2.42c-2.16-.42-3.74-.47-5.34-.32-1.61.14-3.61.37-4.72.27-1.11-.1-.94.22-.54.86z"/><path fill="#E9B528" fill-rule="nonzero" d="M270.09 203.94c-.19.12-.31.27-.4.39h1.87a.745.745 0 00-.18-.54c-.29-.34-.83-.15-1.29.15zM273.43 203.81c-.3.16-.5.35-.62.52h1.9c0-.07 0-.15-.01-.22-.06-.3-.63-.62-1.27-.3zM226.78 205c.1.58.24 1.18.41 1.78h59.34c.18-.6.31-1.2.42-1.78h-60.17zM266.76 176.65c1.88 1.25 7.83 1.31 10.63 1.87 2.79.56 2.6 2.7 1.74 3.82-.86 1.12-4.79 1.25-5.49 1.34.38.27.95 1.09.95 1.09s.43-.03 1.61-.13c1.19-.1 3.26-.4 4.67-1.58 1.42-1.18 1.32-3.09.07-4.37-1.25-1.29-3.32-1.42-5.43-1.65-2.1-.23-3.75-.39-6.12-.79-2.36-.39-3.51-1.35-3.51-2.73s1.28-2.1 2.2-2.37c.92-.26 2.4-.65 3.72-.16 1.31.49 2.86.56 5.45.23 2.6-.33 3.2-2.14 3.2-2.14s-.34.17-1.65.2c-1.32.03-2.27-.56-4.67-.59-2.4-.04-3.25.82-4.37 1.21-1.12.4-4.11.7-5 2.63-.89 1.95.13 2.87 2 4.12z"/><path fill="#DE6F10" fill-rule="nonzero" d="M251.16 166.59c-.61 0-1.12.49-1.12 1.1 0 .61.51 1.1 1.12 1.1.62 0 1.12-.49 1.12-1.1 0-.61-.5-1.1-1.12-1.1zM275.22 169.58c-1.48-.13-3.42.26-3.42.26s.36.3.85.26c.49-.03 1.38-.06 2.83.2 1.44.26 2.5-.43 2.5-.43s-1.28-.16-2.76-.29z"/><path fill="#E9B528" fill-rule="nonzero" d="M322.81 236.09c1.19.28 10.97 2.15 11.79 2.33.82.18 1.51.37 1.74.14.23-.23.36-.37 1.23-.69.87-.32.83-1.18.83-1.18s.22-.83.31-1.65c.1-.82.55-1.1 1.51-.09.96 1 1.15 2.47 1.33 3.88.18 1.42 2.42 1.79 3.29 1.92.87.14 1.28-.13 1.78-.96.5-.82.78-2.46.92-3.52.13-1.05.04-.96-1.06-1.23-1.09-.27-6.16-1.42-7.08-1.65-.91-.23-.73-.82-.59-1.46.13-.64 2.14-7.08 2.14-7.08-1.43-.89-3.44-1.42-5.85-1.69 0 0-1.46 6.58-1.73 7.58-.28 1.01-.92 1.01-1.97.82-1.05-.18-8.64-1.96-8.64-1.96l-.59 1.42c-.59 1.41-.87 3.11-.87 3.97 0 .87.32.83 1.51 1.1z"/><path fill="#E9B528" fill-rule="nonzero" d="M348.77 242.04c-1.01-.66-1.76-.84-2.28.39-.53 1.23-.57 3.02-1.88 4.3-1.31 1.27-3.15 2.58-4.99 2.45-1.84-.13-2.89-.57-2.45-2.67.44-2.11 3.24-2.77 3.89-3.86.66-1.1.49-2.37-.48-3.2-.96-.83-2.36-1.01-2.76-.74-.39.26-1.53 1.22-2.1 2.8-.56 1.58-.91 2.85-2.14 3.86-1.22 1-4.37 2.01-6.82 1.44-2.45-.57-3.33-1.31-4.25-3.72-.92-2.41-2.01-6.4-2.49-6.84-.48-.44-1.1-.79-2.15-.04-1.05.74-1.14 1.84-1.27 2.71-.13.88 0 1.89 1.05 3.16 1.05 1.27 2.15 2.54 2.54 3.86.4 1.31 1.58 3.33-.09 3.41-1.66.09-2.4.13-3.67-1.09-1.27-1.23-6.22-4.6-7.57-5.7-1.36-1.09-1.93-1.44-1.93-1.44-2.28-.04-4.58-.98-6.86-2.54 0 0 1.31 3.37 1.57 4.64.26 1.27.22 1.97.22 1.97s4.99 2.54 6.96 3.51c1.96.96 5.95 3.24 7.87 4.42 1.93 1.19 3.55 3.03 6.96 2.33 3.41-.71 10.32-2.81 12.56-3.47 2.23-.65 8.4-2.19 10.67-3.76 2.28-1.58 2.5-1.49 2.89-3.07.4-1.58 0-2.46-1-3.11zM335.59 218.44c.38-.05.54-.1 1.7-.25 1.17-.15.73.96.53 1.39-.2.43-.56 1.29-1.03 2.1-.49.82.15.95.47 1.07.33.13.81.18 1.75.43s.76-.43.78-.78c.03-.36.08-2.21.18-2.87.1-.66.71-.48.94-.35.23.12.81.45 1.29.7.48.26.71-.02.81-.3.1-.28.33-.78.53-1.52.2-.73-.25-.58-.71-.58-.45 0-1.11 0-1.87-.03-.76-.02-.28-.76-.28-.76s.56-.91.99-1.59c.43-.69.28-.79-.16-.92-.42-.12-1.77-.43-2.15-.53-.37-.1-.55-.05-.55.21 0 .25-.05 1.57-.05 2.07 0 .51-.05.82-.71.84-.66.03-1.06-.36-1.59-.94-.54-.58-.76-.35-.81-.12-.06.22-.49 1.9-.59 2.35-.1.46.16.43.53.38z"/><path fill="#E9B528" fill-rule="nonzero" d="M297.6 236.99c-.74-.78 1.14-.81 2.25-.81s2.93-.59 3.52-.96c.59-.37 1.61-.55 2.81-1.14 1.2-.59.46-.78-.77-1.08-1.24-.32-4.54-1.71-4.54-1.71s-1.6.87-2.5 1.39c-.89.53-2.1 1.27-4.04 1.52-1.95.25-2.53.34-2.63.4-.09.07.47.53 1.21 1.58.74 1.06 1.05 1.74 1.97 3.32.93 1.58-.15.65-.92-.34-.44-.56-1.41-1.88-2.31-2.82-.71-.73-1.43-1.18-1.43-1.18l-.62 1.33v.47c0 .43-.37 2.57-.49 3.43-.12.87.22.87.9 1.18.67.31 2.03 1.08 5.68 3.37 3.64 2.3 5 3.81 5 3.81s.12-.99.12-1.98-.03-3-.83-5.26c-.81-2.26-1.64-3.75-2.38-4.52z"/><path fill="#E9B528" fill-rule="nonzero" d="M289.14 231.93c.86.17 1.2.39 2.4.39 1.19 0 1.7-.39 2.94-.39s2.1-.43 4.11-1.49c2-1.07.08-.77-1.33-.65-1.41.13-5.08-.42-6.67-1.02-1.58-.6-.42-.69 0-.56.43.13.65.26 3.81.81 3.16.56 4.32-.17 5.94-.59 1.62-.43-.38-.64-.38-.64s-5.73-1.63-8.6-4.83c-2.18-2.46-2.93-4.71-3.15-5.63a24.316 24.316 0 01-3.68 3.51c.1.44.3 1.18.6 1.86.47 1.07 1.83 2.48 1.83 2.48s-1.71-.69-2.47-1.5c-.53-.56-1-1.42-1.24-1.9-1.88 1.31-3.82 2.35-5.61 3.21.21.17.48.39.78.66.77.68 1.49 1.58 2.47 3.16.99 1.58.09 1.45-.81 0s-3.12-2.95-3.54-3.16a.492.492 0 00-.17-.06c-.23.1-.46.21-.68.3-1.21.55-2.35 1.03-3.44 1.49.73.59 2.42 2.25 3 3.1.65.94 1.97 1.79 2.44 2.43.47.64.98 1.37 1.62 2.14.65.77 4.49 5.09 5.52 6.71 1.02 1.62.42-.43.17-1.54-.26-1.11-.64-2.69-.98-3.93-.35-1.24.38-.73.51-.04.13.68.3.72.6 2.05.3 1.32 1.06 3.29 1.41 4.65.34 1.37.47.73.81.09.34-.64.85-1.75 1.07-2.44.21-.68.38-2.22.42-4.57.04-2.35-1.11-3.29-1.11-3.63 0-.34.56-.64 1.41-.47zM305.62 237.02c-.35.16-1.5.54-2.04.62-.53.08-.92.11-.92.11s1.08 1.5 2.69 1.5h4.63s-2.79-1.65-3.14-2.03c-.34-.39-.88-.35-1.22-.2zM339.26 235.04s-.04 1.33-.18 1.78c-.14.46-.46 1.15.09 1.33.55.18 1.05.41 1.37.32.32-.09.18-.73 0-1.28s-.45-1.24-.87-1.69l-.41-.46zM347.31 240.34c.18.41.54.51.82.6.27.09.64.09.64-.42 0-.5.09-1.14-.32-1.69-.41-.55-.63-.94-.87-.13-.24.81-.46 1.23-.27 1.64zM319.29 234.99c.23.05 1.1.32 1.1.32s0-1.28.18-2.14c.18-.87.55-1.47.23-1.47-.32 0-.5.28-.73.64-.23.37-.87.46-1.1 1.51-.23 1.05.09 1.1.32 1.14z"/><path fill="#DE6F10" fill-rule="nonzero" d="M208.62 198.9c-.92.7-2.12.98-2.12.98s-.57-.03-.57.2c0 .22.66 0 1.36-.13.7-.13 1.65-.83 1.99-1.08.35-.25.86-.57.7-1.02-.16-.44-.44.35-1.36 1.05zM216.51 203.12c-.19.22-1.71 1.37-1.71 1.37s-.48.31-.98.5c-.51.2-.64.48-.64.48s.1.13.64-.03c.53-.16 2.12-1.27 2.63-1.72.5-.44.73-.57.54-.76-.19-.19-.29-.06-.48.16zM184.5 146.25c.29.34.63.82.79.66.16-.16-.03-.32-.41-.76s-.6-.66-.6-.66-.53-.85-.85-1.17c-.31-.32-.79-.47-.19.25.6.73.98 1.33 1.26 1.68zM182.08 151.58c.34.32.66.6 1.04 1.01.37.41.66.85.88.63.22-.22-.57-.69-.92-1.13-.34-.45-.63-.73-1.07-1.08-.44-.34-.97-.63-.97-.63s.69.89 1.04 1.2zM182.98 160.18c.6.63 1.49.83 1.62.57.13-.25-.07-.46-.57-.71-.5-.25-1.32-.79-1.73-1.07-.41-.29-.82-.6-1.11-.88-.28-.29-.62-.54-.72-.45-.11.1.83 1.11 1.12 1.27.28.16.79.64 1.39 1.27zM184.73 167.07c0-.26.06-.38-.45-.41-.51-.04-1.2-.13-1.2-.13s-.99-.38-1.05-.19c-.06.19.82.57 1.21.63.37.07.85.19 1.07.32.23.13.42.03.42-.22zM185.48 174.56c-1.07 0-1.99-.26-2.06-.1-.06.16.51.42 1.05.61s1.55.25 2.25.28c.7.03.82-.12.79-.47-.03-.35-.95-.32-2.03-.32zM193.91 182.75c-.15-.16-.53-.04-1.14.09-.6.13-1.58.32-2.15.29-.57-.03-1.81-.07-1.81-.07s-.69 0-.69.16.92.13 2.25.29c1.33.16 2.21-.13 2.85-.22.63-.1.85-.38.69-.54zM197.4 188.59c-.67.25-1.14.31-1.65.31-.5 0-1.71.23-1.71.23s-.57.06-.47.28c.09.22.28 0 .79-.06s.89 0 1.77-.03c.89-.03 1.4-.26 1.94-.35.53-.1 1.14-.38.85-.73-.28-.35-.86.09-1.52.35zM204.18 193c-.38.38-1.84 1.36-1.84 1.36s-.28.23-.85.51c-.57.29-.54.41-.44.57.09.16.44-.22.76-.35.31-.12 1.36-.82 1.9-1.27.54-.44 1.23-.79 1.11-1.11-.13-.31-.26-.09-.64.29zM192.9 135.87s.12.29 1.29 1.75.55.08.25-.29c-.29-.38-2-2.8-2.59-3.47-.58-.67-.67-.34-.37.08.29.42 1.42 1.93 1.42 1.93zM190.43 143.39c.17-.17-.21-.33-.88-1.17-.67-.84-2-2.55-2-2.55s-.38-.8-.51-.71c-.12.08.46 1.33 1.01 1.88.54.54 1.25 1.59 1.63 2.05.37.46.58.67.75.5zM193.68 157.49c0-.41-1.33-.35-1.93-.48-.6-.12-1.67-.34-1.67-.34s-1.26-.23-1.29-.07c-.03.16.25.32.95.45.69.12 1.73.44 2.52.56.79.13 1.42.29 1.42-.12zM190.43 149.87c.88.71 1.46 1.04 1.92 1.29.46.26.84.63 1.09.34.25-.29-.21-.5-.96-.84-.75-.33-1.13-.62-1.13-.62s-.42-.21-.8-.42c-.37-.21-1-.46-.12.25zM198 144.85c-.55-.46-1.01-.71-1.01-.71s-.67-.63-.79-.42c-.13.21.75.84 1.17 1.22.42.37 1.17 1.46 1.55 1.25.37-.21-.38-.88-.92-1.34zM193.06 164.5s-.73.19-1.21.31c-.47.13-.5.36.35.36.86 0 1.21-.23 2.06-.39.86-.16 1.14-.25 1.02-.54-.13-.28-.57-.19-.92-.09-.35.09-1.3.35-1.3.35zM194.39 171.61c-.33.16.28-.01 1.05-.16.44-.16 1.36-.63 1.9-.8.54-.15.54-.25.54-.57 0-.31-.58-.06-1.27.16-.7.22-1.59.92-1.59.92s-.57.29-.63.45zM203.55 175.92c.63-.38.76-.66.54-.85-.22-.19-.41-.16-.92.25-.51.41-1.49 1.11-1.49 1.11s-.51.19-.89.38-.85.51-.73.7c.13.19.92 0 1.33-.35.42-.35 1.53-.86 2.16-1.24zM207.86 181.64c.25-.23 1.01-.48 1.36-.73.35-.26.57-1.02.29-1.11-.29-.1-.45.31-1.05.76-.6.44-2.66 1.81-2.66 1.81s.03 0-.54.22c-.57.22-.32.38.16.32.47-.07.79-.07 1.36-.51.57-.45.82-.54 1.08-.76zM214.26 187.06c.54-.22 1.33-.92 1.71-1.27.38-.35.86-.79.57-1.01-.28-.22-.6.06-1.04.47-.45.42-1.62 1.65-1.62 1.65s-.16.04-.79.54c-.64.51.03.42.25.19.22-.22.38-.35.92-.57zM307.21 199.88s-1.2-.28-2.12-.98c-.92-.7-1.21-1.49-1.37-1.05-.15.45.35.77.7 1.02s1.3.95 2 1.08c.7.13 1.36.35 1.36.13 0-.23-.57-.2-.57-.2zM299.89 204.99c-.51-.19-.98-.5-.98-.5s-1.52-1.15-1.71-1.37c-.19-.22-.29-.35-.48-.16-.19.19.03.32.54.76.51.45 2.09 1.56 2.63 1.72.54.16.63.03.63.03s-.12-.28-.63-.48zM329.2 146.25c.29-.35.67-.95 1.27-1.68.59-.72.12-.57-.19-.25-.32.32-.85 1.17-.85 1.17s-.23.22-.6.66c-.38.44-.57.6-.41.76.15.16.5-.32.78-.66zM329.71 153.22c.22.22.5-.22.88-.63.38-.41.69-.69 1.04-1.01.35-.31 1.04-1.2 1.04-1.2s-.53.29-.98.63c-.44.35-.72.63-1.07 1.08-.34.44-1.13.91-.91 1.13zM333.24 157.64c-.11-.09-.44.16-.72.45-.29.28-.7.59-1.11.88-.41.28-1.23.82-1.73 1.07-.51.25-.7.46-.57.71.13.25 1.01.06 1.61-.57.61-.63 1.11-1.11 1.4-1.27.29-.16 1.22-1.17 1.12-1.27zM330.63 166.53s-.7.09-1.2.13c-.51.03-.45.15-.45.41 0 .25.19.35.41.22.23-.13.7-.25 1.08-.32.38-.06 1.27-.44 1.21-.63-.07-.19-1.05.19-1.05.19zM328.22 174.56c-1.08 0-1.99-.03-2.03.32-.03.35.1.5.8.47.69-.03 1.71-.09 2.25-.28.53-.19 1.11-.45 1.04-.61-.06-.16-.98.1-2.06.1zM324.9 183.06s-1.24.04-1.81.07c-.57.03-1.55-.16-2.16-.29-.6-.13-.98-.25-1.14-.09-.16.16.07.44.7.54.63.09 1.52.38 2.85.22s2.25-.13 2.25-.29c0-.16-.69-.16-.69-.16zM319.67 189.09s-1.21-.19-1.71-.19c-.51 0-.99-.06-1.65-.31-.67-.26-1.24-.7-1.52-.35-.29.35.31.63.85.73.54.09 1.05.31 1.93.35.89.03 1.27-.04 1.78.03.51.06.7.28.79.06.1-.22-.47-.32-.47-.32zM312.22 194.87c-.57-.28-.86-.51-.86-.51s-1.45-.98-1.84-1.36c-.38-.38-.5-.6-.63-.29-.13.32.57.67 1.11 1.11.54.45 1.58 1.15 1.9 1.27.32.13.67.51.76.35.1-.16.13-.28-.44-.57z"/><path fill="none" d="M319.51 137.62c1.18-1.46 1.3-1.75 1.3-1.75s1.13-1.51 1.42-1.93c.3-.42.21-.75-.37-.08-.59.67-2.3 3.09-2.6 3.47-.29.37-.92 1.75.25.29"/><path fill="#DE6F10" fill-rule="nonzero" d="M326.79 139.11s-1.97 2.27-2.64 3.11c-.66.83-1.04 1-.87 1.17.16.17.37-.04.75-.5.37-.46 2.21-3.24 2.76-3.78zM320.03 157.49c0 .41.63.25 1.42.12.79-.12 1.83-.44 2.52-.56.7-.13.98-.29.95-.45-.03-.16-1.29.07-1.29.07s-1.08.22-1.68.34c-.59.13-1.92.07-1.92.48zM323.15 149.62c-.38.21-.79.42-.79.42s-.38.29-1.13.62c-.75.34-1.21.55-.96.84.25.29.63-.08 1.09-.34.45-.25 1.04-.58 1.92-1.29.87-.71.25-.46-.13-.25zM314.79 146.19c.38.21 1.13-.88 1.55-1.25.41-.38 1.29-1.01 1.17-1.22-.13-.21-.8.42-.8.42s-.46.25-1 .71c-.54.46-1.3 1.13-.92 1.34zM319.44 164.78c.86.16 1.21.38 2.07.38.85 0 .82-.22.34-.35-.47-.12-1.2-.31-1.2-.31s-.95-.26-1.3-.35c-.35-.1-.79-.19-.92.09-.13.29.16.38 1.01.54zM318.68 171.16s-.88-.7-1.58-.92c-.7-.22-1.27-.47-1.27-.16 0 .32 0 .42.54.57.54.17 1.46.64 1.9.8.45.16 1.11.32 1.05.16-.07-.16-.64-.45-.64-.45zM312.91 176.81c-.37-.19-.88-.38-.88-.38s-.98-.7-1.49-1.11c-.51-.41-.7-.44-.92-.25-.22.19-.09.47.54.85s1.74.89 2.15 1.24c.42.35 1.21.54 1.33.35.13-.19-.34-.51-.73-.7zM308.45 182.59c-.57-.22-.54-.22-.54-.22s-2.06-1.37-2.66-1.81c-.6-.45-.76-.86-1.05-.76-.28.09-.06.85.29 1.11.34.25 1.11.5 1.36.73.25.22.51.31 1.08.76.57.44.88.44 1.36.51.47.06.73-.1.16-.32zM300.62 187.44c-.63-.5-.79-.54-.79-.54s-1.17-1.23-1.62-1.65c-.44-.41-.76-.69-1.04-.47-.29.22.19.66.57 1.01.38.35 1.17 1.05 1.71 1.27.54.22.69.35.92.57.22.23.88.32.25-.19z"/><path fill="#E9B528" fill-rule="nonzero" d="M256.83 110.65c-4.31.07-9.37-.52-12.16-1.56l-2.97.66c4.59 1.73 8.43 2.4 15.13 2.46 6.71-.06 10.55-.73 15.14-2.46l-2.97-.66c-2.79 1.04-7.85 1.64-12.17 1.56zM272.53 107.05c-.34-.28-2.3-1.68-2.82-1.94-.51-.25-.11-.94-.02-1.22.08-.29 2.3-.92 3.53-1.23 1.22-.32 1.02-.57 1.02-.57s-.71-.83-5.15-1.32c-4.44-.48-12.24-.37-12.24-.37s-7.8-.11-12.25.37c-4.44.49-5.15 1.32-5.15 1.32s-.2.25 1.03.57c1.22.31 3.44.94 3.53 1.23.08.28.48.97-.03 1.22-.51.26-2.48 1.66-2.82 1.94-.34.29-.37.75.17.78.54.02.55.01 2.08-.29 4.57-.91 8.87-1.16 13.44-1.23 4.56.07 8.86.32 13.44 1.23 1.52.3 1.53.31 2.07.29.54-.03.51-.49.17-.78z"/><path fill="#E9B528" fill-rule="nonzero" d="M239.88 103.14l-1.96 1.55 2.41 1.06 2.58-1.83zM273.78 103.14l-3.04.78 2.59 1.83 2.4-1.06zM267.48 108.94c-3.05-.36-4.98-.76-10.63-.7-5.64.05-7.57.34-10.62.7 1.92.77 5.02 1.16 10.62 1.16 5.61 0 8.71-.39 10.63-1.16z"/><path fill="#005D95" fill-rule="nonzero" d="M261.14 197.2c-.36-.57-.46-.52-.88-.16-.41.36-.83-.88-.88-1.66-.05-.77.31-3.16.31-3.16s-2.02.41-3.11.78c-1.09.36-2.12.46-3.01.67-.88.21-1.34.41-1.81.31-.47-.1-1.45-.15-2.23-.15s-.72.15-1.5.93-.99 1.19-1.61 2.64c-.62 1.45-.83 2.8-1.04 4.56-.13 1.16-.36 1.95-.5 2.37h9.3c.11-.3.25-.67.38-.95.24-.54.75-.88 1.12-1.05.36-.17.68-.17.85-.58.17-.41.63-.76 1.12-.97.49-.22 1.34-.1 2.12.12.77.22 1.04-.32 1.26-.61.22-.29.32-.71.73-1.24.42-.54.11-1.03.11-1.03s-.36-.25-.73-.82zM276.05 197.44c-.12-.53-.07-.61-.39-.68-.32-.07-.85-.17-1.31-.36-.46-.2-.42 1.04-.42 1.04s-1.09.12-2.33-.02c-1.24-.15-2.7-1.27-3.22-1.63-.51-.37-1.07-1.2-1.07-1.2s-.39.37-.78.59c-.39.22-.61 1-.68 1.78-.07.78.9 1.72.98 2.5.07.78-.86 2.34-1.32 2.97-.31.44-.72 1.36-.95 1.9h4.49c.09-.23.24-.52.48-.75.46-.47 1.24-.56 1.24-.56s0-.2.17-.61c.17-.42.63-.9 1.75-1.34 1.12-.44 2.46-.51 2.46-.51s.54-.44.93-1.05c.38-.61.09-1.53-.03-2.07z"/><path fill="#E9B528" fill-rule="nonzero" d="M255.91 67.13l2.33-.19-.21-2.03 2.49.35.1-2.01-2.62.24.45-2.16-2.88-.03.5 2.19-2.54-.24v2.01l2.52-.3zM260.99 70.42h-3.12v-2.66c-.3-.06-.61-.09-.93-.09-.28 0-.55.02-.81.07v2.68h-3.23a3.473 3.473 0 00-.14 1.53h8.37a3.473 3.473 0 00-.14-1.53z"/><path fill="#005D95" fill-rule="nonzero" d="M256.94 75.32c1.86 0 3.44-1.1 4-2.61h-7.99c.56 1.51 2.13 2.61 3.99 2.61zM258.67 68v1.83h2.07c-.43-.81-1.16-1.46-2.07-1.83zM255.22 68c-.91.37-1.64 1.02-2.07 1.83h2.07V68z"/><path fill="#DE6F10" fill-rule="nonzero" d="M259.34 101.99c-.79-.37-2.51-1.1-2.51-1.1s-1.64.8-2.52 1.25c-.89.45-.78.32-1.05.96-.27.65.03.88.41 1.05.39.17 3.2 1.61 3.2 1.61s2.78-1.29 3.45-1.61c.68-.32.55-.63.36-1.12-.18-.49-.56-.66-1.34-1.04zM265.07 101.23c1.36 0 2.46 1.06 2.46 2.37s-1.1 2.38-2.46 2.38c-1.35 0-2.46-1.07-2.46-2.38 0-1.31 1.11-2.37 2.46-2.37zM248.58 101.23c1.36 0 2.46 1.06 2.46 2.37s-1.1 2.38-2.46 2.38c-1.36 0-2.46-1.07-2.46-2.38 0-1.31 1.1-2.37 2.46-2.37z"/><path fill="#E9B528" fill-rule="nonzero" d="M254.15 102.81l2.75 1.4 2.72-1.4-2.79-1.3zM265.07 101.69c-.82 0-1.48.63-1.48 1.41 0 .79.66 1.42 1.48 1.42s1.48-.63 1.48-1.42c0-.78-.66-1.41-1.48-1.41zM248.58 101.69c-.82 0-1.48.63-1.48 1.41 0 .79.66 1.42 1.48 1.42s1.48-.63 1.48-1.42c0-.78-.66-1.41-1.48-1.41zM243.45 95.46c.63.23 1.45.13 1.45.13s.25-1.09-.35-1.62-1.15-.92-1.5-1.27c-.35-.35-.44-.47-.44-.47s0 .94-.04 1.53c-.05.59.25 1.46.88 1.7zM244.75 96.22c-.25 0-.45.2-.45.43 0 .24.2.43.45.43s.45-.19.45-.43c0-.23-.2-.43-.45-.43zM241.39 96.19c-.19.27-.6.7-.6.7s.5.01.91.31c.41.29.94.54 1.42.48.49-.06.7-.51.59-.84-.1-.32-.34-.66-1.13-.96-.79-.29-1 .05-1.19.31z"/><path fill="#E9B528" fill-rule="nonzero" d="M243.12 99.07c-1.55.13-3.59-1.57-3.59-1.57-.19 1.37-1.04 2.08-2.34 2.34l.12.06s1.21.62 2.64.83c.64.1 1.22-.01 1.91-.15.84-.17 1.78-.4 2.29-.72.93-.57.65-2.07.65-2.07s-.14 1.14-1.68 1.28zM237.09 97.52c-.63-.24-1.58-.7-1.98-.72-.39-.02-.97-.12-.87.62.1.73.85 1.09 1.59 1.11.73.02 1.11-.26 1.54-.48.44-.22.36-.3-.28-.53zM232.26 94.89c-.69-.49-1.31-.63-1.31-.63s-.45 1.19-.2 1.93c.26.73.8.93 1.45.91.66-.02 1.63-.36 1.35-.86-.28-.49-.59-.85-1.29-1.35zM232.89 97.86c.3 0 .54.17.54.39 0 .21-.24.38-.54.38-.29 0-.53-.17-.53-.38 0-.22.24-.39.53-.39zM234.37 92.32c-.43-2.04-.36-4.25 1.57-7.07 1.93-2.82 5.28-3.96 5.28-3.96s.11-.21 1.18-1.35c1.07-1.14 3.24-2.57 3.24-2.57s-2.52.62-3.96 1.08v.08c0 .97-.77 1.76-1.73 1.76-.36 0-.7-.11-.98-.31-.78.15-3.38 1.7-4.04 2.26.17.27.26.58.26.93 0 .97-.77 1.76-1.73 1.76-.29 0-.56-.07-.8-.2-.07.13-.15.25-.22.38-.54 1-.94 1.96-1.24 2.84.45.3.74.88.74 1.53 0 .97-.65 1.76-1.46 1.77-.06.57-.06.96-.03 1.14.07.57.28.92 1.28 1.21 1 .29 2.35 2.03 2.35 2.03.1 0 .81-1.28.29-3.31z"/><path fill="#E9B528" fill-rule="nonzero" d="M240.51 79.3c.36-.3.42-.75.14-1.01-.29-.26-.82-.23-1.18.07-.37.3-.43.75-.14 1.01.28.26.81.23 1.18-.07zM234.05 83.66c.41-.37.48-.93.15-1.26-.32-.32-.92-.29-1.33.09-.41.37-.48.94-.15 1.26.32.33.92.29 1.33-.09zM231.2 89.16c0-.55-.45-.99-1-.99s-1 .44-1 .99c0 .54.45.98 1 .98s1-.44 1-.98zM251.74 75.3c-.51.11-1.47.42-2.9 1.17h.02c1 0 1.77.64 1.77 1.47 0 .82-.9 1.72-1.9 1.72-.99 0-1.67-.86-1.67-1.69 0-.19.04-.38.12-.55-.42.26-.87.55-1.36.88-3.17 2.14-3.92 3.17-5.49 6.1-1.57 2.92-2.14 6.13-1.46 8.02.67 1.89 3.17 2.28 3.21 2.28.03 0-.29-.28-.32-.64-.04-.35.07-.53.17-1.25.11-.71.04-1.56.04-1.56s.57-.08.89.32c.32.39.79.85 1.11 1.24.32.4 1.17 1.15 1.17 1.15s.5-.72.5-1.57c0-.86-.57-1.79-.67-3.28-.11-1.5.67-4.18 2.14-6.14 1.46-1.96 4.21-3.75 5.03-4.14.82-.39.96-1 1-1.35.03-.36.1-.61.17-1.5s-.75-.86-1.57-.68z"/><path fill="#E9B528" fill-rule="nonzero" d="M248.59 78.69c.56 0 1.07-.51 1.07-.97 0-.47-.44-.82-1-.82s-1.02.37-1.02.84c0 .46.38.95.95.95zM253.31 97.34c.77.31 1.63.13 2.04-.14.41-.27.54-.96.06-1.36-.48-.39-1.2-.38-1.64-.13-.44.24-1.44.95-1.44.95s.22.37.98.68z"/><path fill="#E9B528" fill-rule="nonzero" d="M255.76 98.2c-.28.42-.48.68-1.33.72-.85.04-1.77-.02-2.33-.58-.55-.55-.94-1.33-.94-1.33l-.96-.02s-.31 1.34-.74 1.71c-.42.37-1.9.42-2.55-.06-.64-.48-1.23-1.07-1.34-1-.12.08-.01.56.66 1.13.66.58 1.13.93 2.2.93h6.09s1.24.07 1.59-.67c.35-.74.37-1.2.2-1.39-.16-.18-.27.13-.55.56z"/><path fill="#E9B528" fill-rule="nonzero" d="M246.5 97.17c.91.5 1.42.19 1.75-.22.33-.4.4-.59.4-.59s-.87-.31-1.29-.56c-.42-.24-.7-.48-1.12-.43-.42.05-.48.11-.48.11s-.18 1.18.74 1.69zM258.26 95.84c-.48.4-.35 1.09.06 1.36.4.27 1.27.45 2.03.14.77-.31.99-.68.99-.68s-1-.71-1.44-.95c-.45-.25-1.16-.26-1.64.13z"/><path fill="#E9B528" fill-rule="nonzero" d="M266.76 98.64c-.65.48-2.13.43-2.55.06-.43-.37-.74-1.71-.74-1.71l-.96.02s-.39.78-.95 1.34c-.55.55-1.47.61-2.32.57-.85-.04-1.06-.3-1.33-.72-.28-.43-.39-.74-.56-.56-.16.19-.14.65.21 1.39.35.74 1.58.67 1.58.67h6.1c1.07 0 1.53-.35 2.2-.93.66-.57.77-1.05.66-1.13-.11-.07-.7.52-1.34 1z"/><path fill="#E9B528" fill-rule="nonzero" d="M266.3 95.8c-.41.25-1.28.56-1.28.56s.06.19.4.59c.33.41.84.72 1.75.22.91-.51.74-1.69.74-1.69s-.06-.06-.48-.11-.7.19-1.13.43zM271.1 93.76c-.04-.59-.04-1.53-.04-1.53s-.09.12-.44.47c-.36.35-.9.74-1.5 1.27s-.35 1.62-.35 1.62.82.1 1.45-.13c.63-.24.92-1.11.88-1.7zM269.37 96.65c0-.23-.2-.43-.45-.43s-.45.2-.45.43c0 .24.2.43.45.43s.45-.19.45-.43zM270.54 97.68c.49.06 1.02-.19 1.43-.48.41-.3.91-.31.91-.31s-.41-.43-.6-.7c-.19-.26-.4-.6-1.19-.31-.8.3-1.03.64-1.14.96-.1.33.11.78.59.84z"/><path fill="#E9B528" fill-rule="nonzero" d="M274.14 97.5s-2.04 1.7-3.59 1.57c-1.54-.14-1.68-1.28-1.68-1.28s-.28 1.5.65 2.07c.51.31 1.45.55 2.29.72.69.14 1.27.25 1.91.15 1.43-.21 2.64-.83 2.64-.83l.11-.06c-1.29-.26-2.14-.97-2.33-2.34zM278.55 96.8c-.39.02-1.34.48-1.98.72-.63.23-.71.31-.27.53.43.22.81.5 1.54.48.73-.02 1.49-.38 1.59-1.11.1-.74-.48-.64-.88-.62zM281.41 94.89c-.7.5-1.01.86-1.29 1.35-.28.5.69.84 1.35.86.65.02 1.18-.18 1.44-.91.26-.74-.2-1.93-.2-1.93s-.61.14-1.3.63zM280.77 97.86c-.29 0-.53.17-.53.39 0 .21.24.38.53.38.3 0 .54-.17.54-.38 0-.22-.24-.39-.54-.39zM281.72 89.48c0-.65.3-1.23.74-1.53-.29-.88-.69-1.84-1.24-2.84-.06-.13-.14-.25-.22-.38-.24.13-.5.2-.79.2-.96 0-1.73-.79-1.73-1.76 0-.35.09-.66.26-.93-.67-.56-3.26-2.11-4.04-2.26-.28.2-.62.31-.98.31-.96 0-1.73-.79-1.73-1.76v-.08c-1.44-.46-3.96-1.08-3.96-1.08s2.17 1.43 3.24 2.57c1.07 1.14 1.18 1.35 1.18 1.35s3.35 1.14 5.28 3.96c1.93 2.82 2 5.03 1.57 7.07-.52 2.03.19 3.31.28 3.31 0 0 1.36-1.74 2.36-2.03 1-.29 1.21-.64 1.28-1.21.02-.17.03-.57-.03-1.14-.81-.01-1.47-.8-1.47-1.77z"/><path fill="#E9B528" fill-rule="nonzero" d="M273.16 79.3c.36.3.89.33 1.18.07.29-.26.23-.71-.14-1.01-.36-.3-.89-.33-1.18-.07-.29.26-.22.71.14 1.01zM279.62 83.66c.41.38 1.01.42 1.33.09.33-.32.26-.89-.15-1.26-.41-.38-1.01-.41-1.33-.09-.33.33-.26.89.15 1.26zM283.47 88.17c-.55 0-1 .44-1 .99 0 .54.45.98 1 .98s1-.44 1-.98c0-.55-.45-.99-1-.99zM260.53 77.47c.04.36.18.97 1 1.36.82.39 3.57 2.18 5.03 4.14 1.47 1.96 2.25 4.64 2.14 6.13-.1 1.5-.67 2.43-.67 3.29 0 .85.49 1.57.49 1.57s.86-.75 1.18-1.15c.32-.39.79-.85 1.11-1.24.32-.4.89-.32.89-.32s-.07.85.03 1.56c.11.72.22.9.18 1.25-.03.36-.35.64-.32.64.04 0 2.54-.39 3.21-2.28.68-1.89.11-5.1-1.46-8.02-1.57-2.93-2.32-3.97-5.49-6.11-.49-.32-.94-.61-1.37-.87.09.17.13.35.13.55 0 .83-.68 1.69-1.67 1.69-1 0-1.91-.9-1.91-1.72 0-.83.78-1.47 1.78-1.47h.02c-1.43-.75-2.39-1.06-2.91-1.17-.82-.18-1.64-.21-1.56.68.07.89.14 1.14.17 1.49zM256.83 92.07s-.23.97-.54 1.38c-.31.41-.54.78-.45 1.28.09.5.66.83.99.83.34 0 .91-.33 1-.83.09-.5-.14-.87-.45-1.28-.31-.41-.55-1.38-.55-1.38zM256.85 96.03a.52.52 0 000 1.04c.29 0 .52-.24.52-.52 0-.29-.23-.52-.52-.52z"/><path fill="#E9B528" fill-rule="nonzero" d="M255.01 93.89s.89-.99 1.22-1.62c.33-.63.61-1.19.61-1.19s.26.56.59 1.19c.34.63 1.23 1.62 1.23 1.62s1.26-.66 1.98-3.08c.73-2.41-.16-4.96-.49-7.7-.33-2.75-.6-7.47-.6-7.47-.95.54-1.85.77-2.72.79-.86-.02-1.76-.25-2.71-.79 0 0-.27 4.72-.6 7.47-.33 2.74-1.22 5.29-.49 7.7.72 2.42 1.98 3.08 1.98 3.08zM264.01 77.72c0 .46.51.97 1.07.97.57 0 .95-.49.95-.95 0-.47-.46-.84-1.02-.84s-1 .35-1 .82z"/><path fill="#DE6F10" fill-rule="nonzero" d="M242.08 86.14c1.12 0 2.03.91 2.03 2.02 0 1.11-.91 2.02-2.03 2.02-1.13 0-2.04-.91-2.04-2.02 0-1.11.91-2.02 2.04-2.02zM245.61 81.17c-.82-.54-2.01-.32-2.67.49-.66.82-.54 1.93.28 2.48.81.55 2.01.33 2.67-.49.66-.82.53-1.93-.28-2.48z"/><path fill="#E9B528" fill-rule="nonzero" d="M242 86.77c-.66 0-1.19.51-1.19 1.13 0 .62.53 1.13 1.19 1.13.65 0 1.18-.51 1.18-1.13 0-.62-.53-1.13-1.18-1.13zM244.76 81.4c-.52-.15-1.17.11-1.44.57-.28.46.01.96.71 1.1 1.29.26 1.9-1.35.73-1.67z"/><path fill="#DE6F10" fill-rule="nonzero" d="M256.83 86.37c-1.2 0-2.17.94-2.17 2.1 0 1.15.97 2.09 2.17 2.09s2.17-.94 2.17-2.09c0-1.16-.97-2.1-2.17-2.1zM256.83 81.54c1.15 0 2.09.9 2.09 2.01 0 1.12-.94 2.02-2.09 2.02-1.16 0-2.09-.9-2.09-2.02 0-1.11.93-2.01 2.09-2.01zM256.83 76.93c1.1 0 1.99.86 1.99 1.93 0 1.06-.89 1.92-1.99 1.92s-2-.86-2-1.92c0-1.07.9-1.93 2-1.93zM271.59 86.14c-1.12 0-2.03.91-2.03 2.02 0 1.11.91 2.02 2.03 2.02 1.12 0 2.03-.91 2.03-2.02 0-1.11-.91-2.02-2.03-2.02zM270.73 81.66c-.66-.81-1.85-1.03-2.67-.49-.81.55-.94 1.66-.28 2.48.66.82 1.86 1.04 2.67.49.82-.55.94-1.66.28-2.48z"/><path fill="#E9B528" fill-rule="nonzero" d="M271.67 86.77c-.65 0-1.18.51-1.18 1.13 0 .62.53 1.13 1.18 1.13.65 0 1.18-.51 1.18-1.13 0-.62-.53-1.13-1.18-1.13zM268.91 81.4c-1.17.32-.56 1.93.73 1.67.7-.14.99-.64.71-1.1-.27-.46-.92-.72-1.44-.57zM256.83 86.98c-.64 0-1.15.5-1.15 1.11 0 .61.51 1.11 1.15 1.11.63 0 1.15-.5 1.15-1.11 0-.61-.52-1.11-1.15-1.11zM256.83 84.26c.61 0 1.1-.48 1.1-1.07 0-.59-.49-1.07-1.1-1.07-.61 0-1.11.48-1.11 1.07 0 .59.5 1.07 1.11 1.07zM256.83 79.45c.53 0 .97-.42.97-.94 0-.51-.44-.94-.97-.94-.54 0-.97.43-.97.94 0 .52.43.94.97.94z"/><path fill="#DE6F10" fill-rule="nonzero" d="M324.77 231.02c-.98 0-1.78.8-1.78 1.78s.8 1.78 1.78 1.78c.99 0 1.79-.8 1.79-1.78s-.8-1.78-1.79-1.78zM329.8 232.21c-1.01 0-1.83.81-1.83 1.82a1.83 1.83 0 003.66 0c0-1.01-.82-1.82-1.83-1.82zM344.43 235.31a1.83 1.83 0 10.002 3.662 1.83 1.83 0 00-.002-3.662zM334.83 233.39a1.83 1.83 0 10.002 3.662 1.83 1.83 0 00-.002-3.662zM336.16 229.01c-1.01 0-1.83.82-1.83 1.83 0 1 .82 1.82 1.83 1.82 1 0 1.82-.82 1.82-1.82 0-1.02-.82-1.83-1.82-1.83zM337.43 224.62c-1 0-1.82.82-1.82 1.83 0 1.01.82 1.83 1.82 1.83a1.83 1.83 0 000-3.66z"/><path fill="#E9B528" fill-rule="nonzero" d="M324.91 231.73c.49 0 .89.4.89.89s-.4.89-.89.89-.89-.4-.89-.89.4-.89.89-.89zM329.94 232.94c-.5 0-.92.41-.92.91s.42.92.92.92.91-.42.91-.92-.41-.91-.91-.91zM344.56 236.05c-.5 0-.91.4-.91.91a.915.915 0 001.83 0c0-.5-.41-.91-.92-.91zM334.97 234.13a.91.91 0 100 1.82c.5 0 .91-.4.91-.91s-.41-.91-.91-.91zM336.29 229.74c-.5 0-.91.41-.91.91 0 .51.41.91.91.91a.91.91 0 100-1.82zM337.57 225.35a.915.915 0 10.01 1.83.915.915 0 00-.01-1.83z"/></svg>